<svg width="132" height="132" viewBox="0 0 132 132" fill="none" xmlns="http://www.w3.org/2000/svg">
<path d="M42.4288 27.285H42.4287C35.1838 27.285 29.2861 21.3873 29.2861 14.1425C29.2861 6.89776 35.1838 1 42.4299 1C49.6747 1 55.5724 6.8977 55.5724 14.1425C55.5724 21.3883 49.6747 27.2861 42.4288 27.285Z" stroke="white" stroke-width="2"/>
<path d="M102.716 56.5731V57.5731H103.716H127.288C129.338 57.5731 131.001 59.2355 131 61.2864V61.2869C131 63.3361 129.336 65.0006 127.286 65.0006H122.572H121.572L121.572 66.0006L121.57 127.287C121.57 129.336 119.906 131.001 117.856 131.001C115.807 131.001 114.143 129.337 114.143 127.287V122.573V121.573H113.143H18.8551H17.8551V122.573V127.287C17.8551 129.336 16.1914 131.001 14.1413 131.001C12.0921 131.001 10.4276 129.337 10.4276 127.287V66.0006V65.0006H9.42755H4.71378C2.66457 65.0006 1 63.337 1 61.2869C1 59.2377 2.66368 57.5731 4.71378 57.5731H18.8575H19.8575V56.5731V47.0449C19.8575 41.5932 21.2395 37.1321 23.5555 34.0604C25.8548 31.0107 29.101 29.2866 33 29.2866H51.8578C55.7568 29.2866 59.0033 31.0108 61.303 34.0602C63.6192 37.1316 65.0015 41.5921 65.0015 47.0425V56.5707V57.5707H66.0015H94.2881H95.2881V56.5707V51.8569V50.8569H94.2881H75.4303C73.3811 50.8569 71.7165 49.1932 71.7165 47.1432V18.8566C71.7165 16.8074 73.3802 15.1428 75.4303 15.1428L122.574 15.144C124.623 15.144 126.288 16.8077 126.288 18.8578V47.1455C126.288 49.1947 124.624 50.8593 122.574 50.8593H103.716H102.716V51.8593V56.5731Z" stroke="white" stroke-width="2"/>
</svg>
