<svg width="132" height="147" viewBox="0 0 132 147" fill="none" xmlns="http://www.w3.org/2000/svg">
<path d="M24.0158 142.963C22.8905 142.76 22.0444 142.139 21.7141 141.436C21.3537 140.67 21.5803 139.716 22.6159 139.041L25.4354 137.203L27.0382 136.158L27.5729 135.81L27.4822 135.178L23.8137 109.618C24.5111 110.046 25.2374 110.474 26.0019 110.899L29.804 137.047L26.7158 139.059L24.0158 142.963ZM24.0158 142.963C24.0628 142.7 24.1391 142.441 24.2441 142.189C24.6316 140.92 25.5229 139.833 26.714 139.06L24.0158 142.963ZM45.8448 113.941C45.6051 114.806 45.4346 115.682 45.3352 116.565H45.2673L45.2531 117.551L44.9354 139.515L44.9354 139.525C44.9337 139.852 44.7994 140.21 44.486 140.541L44.4423 140.585L40.3415 144.676C40.3409 144.677 40.3404 144.677 40.3399 144.678C39.8444 145.167 39.025 145.503 38.0946 145.505H31.2844C29.989 145.505 29.0096 144.876 28.6805 144.177C28.3955 143.57 28.5596 142.797 29.4274 142.232C29.4274 142.232 29.4274 142.232 29.4275 142.232L33.8515 139.351L33.8551 139.348C34.2579 139.084 34.5897 138.583 34.4988 137.968C34.4986 137.967 34.4984 137.966 34.4983 137.965L30.3176 109.22L30.3152 109.204L30.3124 109.188C30.226 108.705 29.9045 108.358 29.5507 108.169L29.5509 108.169C20.9348 103.574 16.424 99.0932 14.1575 93.202L14.1574 93.2018L13.2826 90.9296L13.1159 90.4965L12.6774 90.3442C7.37898 88.5043 3.46858 85.0119 1.83684 80.8619C0.218276 76.7412 0.961698 72.2667 3.95083 68.5548L4.02779 68.4592L4.07936 68.3478L11.0513 53.295C11.0514 53.2949 11.0514 53.2948 11.0514 53.2948C11.0692 53.2572 11.2373 53.0661 11.628 53.0661C12.0185 53.0661 12.1856 53.2571 12.2031 53.295L12.4717 53.8744H12.4732L15.7867 61.0284L16.1064 61.7186L16.8569 61.5948C19.5651 61.1479 22.3652 61.1503 25.0716 61.602L25.1534 61.6157H25.2363H25.2379H25.8769L26.1454 61.0358L29.7289 53.2951C29.729 53.2951 29.729 53.295 29.729 53.295C29.7469 53.2568 29.9141 53.0662 30.304 53.0662C30.675 53.0662 30.8463 53.2392 30.8782 53.2908L30.8807 53.2962L37.9633 68.5828L38.0105 68.6847L38.0791 68.7736C38.3728 69.1539 38.6433 69.5381 38.8882 69.9237L39.6527 71.1276L40.524 69.9985C48.684 59.4242 61.4019 53.1823 75.0811 53.1823C85.995 53.1823 96.4893 57.2353 104.445 64.4109L106.127 65.9286L106.115 63.6627L106.085 58.5093C105.982 40.5266 108.616 28.7966 114.237 10.6756L115.863 5.44164L115.863 5.44135C116.287 4.07502 117.399 2.8107 119.07 1.97181C120.742 1.13313 122.789 0.814645 124.782 1.10513L124.782 1.10523C126.707 1.3846 128.377 2.20137 129.498 3.34002L129.624 3.4733C131.018 4.95363 131.349 6.7875 130.633 8.43342L130.549 8.62439V8.62926L129.317 11.5136C129.317 11.5137 129.317 11.5139 129.317 11.514C121.678 29.3694 117.214 40.4389 115.338 58.1779C114.005 69.2738 113.41 73.0279 113.056 74.3835L112.945 74.8072L113.181 75.176C114.83 77.7501 115.845 80.5229 116.186 83.3562L116.186 83.3604C116.642 87.0183 116.279 90.7111 115.112 94.2808L115.11 94.2882L113.236 100.173L113.236 100.173C109.8 110.982 108.061 122.079 108.06 133.221V139.512C108.059 139.859 107.912 140.239 107.569 140.585C107.569 140.585 107.568 140.586 107.568 140.586L103.462 144.678L103.46 144.68C102.971 145.17 102.152 145.508 101.222 145.505H101.219H94.4087C93.1114 145.505 92.1322 144.876 91.8032 144.176C91.5186 143.571 91.6829 142.798 92.5517 142.232L95.3732 140.394H95.3714L97.0802 139.281C97.0811 139.28 97.0821 139.28 97.0831 139.279C97.4504 139.041 97.7474 138.622 97.7478 138.094C97.7478 138.093 97.7478 138.093 97.7478 138.092H96.8458L97.7478 138.081L97.4497 115.015L97.4497 115.014C97.4433 114.556 97.2128 114.173 96.9022 113.929L96.9002 113.927C90.0829 108.588 84.9246 102.148 81.7843 95.0929C81.2567 93.9036 80.653 92.5972 79.8976 91.3153L79.8971 91.3144C79.163 90.0718 77.8872 89.1556 76.3946 88.6864C74.7028 88.1404 72.8972 87.8589 71.075 87.8536H71.0721C60.0341 87.8536 50.2751 98.3859 45.8467 113.934L45.8448 113.941ZM90.2755 136.087L90.7358 135.787L90.7299 135.238L90.4944 113.551C91.2477 114.222 92.0233 114.88 92.8246 115.52L93.0892 137.591L89.018 140.245C88.0144 140.898 87.3131 141.867 87.1235 142.961C86.0053 142.755 85.166 142.137 84.8358 141.437C84.4756 140.67 84.7016 139.717 85.7378 139.041C85.7379 139.04 85.738 139.04 85.7381 139.04L90.2755 136.087Z" stroke="white" stroke-width="2"/>
</svg>
