<svg  viewBox="0 0 1920 227" xmlns="http://www.w3.org/2000/svg">
<mask id="path-1-inside-1_51_21" fill="white">
<path d="M457.652 176.801C451.064 174.061 447.438 169.746 445.119 166.331C443.538 164 442.483 161.494 441.462 159.068C439.565 154.565 437.927 150.674 433.397 148.859C425.039 145.503 414.208 148.506 407.043 150.494C395.479 153.698 386.069 152.2 380.183 146.321C379.291 147.439 378.367 148.526 377.447 149.596C373.924 153.698 370.598 157.573 370.062 162.689C369.983 163.457 370.215 164.237 370.607 164.502C371.745 165.277 372.04 166.826 371.266 167.965C370.783 168.675 369.999 169.057 369.202 169.057C368.718 169.057 368.231 168.916 367.801 168.624C365.859 167.305 364.825 164.832 365.102 162.17C365.799 155.503 369.798 150.848 373.664 146.345C376.576 142.955 379.328 139.751 380.553 135.858C382.305 130.299 380.862 124.049 376.593 118.711C368.466 108.544 351.479 102.582 339.147 109.906C336.444 111.511 332.743 114.411 330.816 117.469C326.523 126.758 318.863 131.873 308.609 132.251C307.726 132.282 306.742 132.175 305.795 132.07C304.807 131.96 302.984 131.757 302.456 132.02C302.469 132.047 302.431 132.21 302.436 132.528C302.464 134.279 302.597 136.053 302.725 137.768C303.159 143.567 303.609 149.562 300.135 155.54C290.824 171.554 270.931 177.931 256.724 178.525C256.039 178.555 255.342 178.569 254.642 178.569C237.301 178.57 215.862 169.793 206.789 152.315C206.155 151.094 206.63 149.588 207.853 148.953C209.071 148.321 210.58 148.794 211.214 150.018C219.696 166.351 240.416 174.202 256.517 173.543C269.465 173.001 287.529 167.304 295.825 153.033C298.522 148.394 298.166 143.643 297.754 138.141C297.619 136.354 297.481 134.507 297.45 132.61C297.421 130.787 297.972 129.349 299.092 128.332C301.073 126.528 304.001 126.852 306.348 127.115C307.146 127.204 307.907 127.281 308.425 127.268C316.551 126.968 322.429 123.145 325.967 115.982C326.02 115.808 326.087 115.635 326.182 115.469C326.271 115.314 326.37 115.163 326.464 115.01C326.479 114.975 326.499 114.946 326.515 114.91C332.879 100.433 328.318 78.6861 319.992 68.9137C312.323 59.9147 296.15 53.0516 284.307 57.1877C279.874 58.7323 276.267 55.7564 273.373 53.3635C272.515 52.6543 271.705 51.9836 270.951 51.4859C265.517 47.8943 257.043 46.8602 249.377 48.85C243.586 50.3514 235.623 54.1907 230.518 63.934C235.524 73.1596 234.715 84.6461 232.024 93.1099C232.061 93.3296 232.081 93.5539 232.058 93.7864C230.987 104.175 239.76 116.187 250.832 119.495C261.921 122.805 277.34 118.874 281.746 107.938C283.435 103.74 283.359 99.2989 281.526 95.0915C279.104 89.5335 273.866 84.7617 267.516 82.3256C264.318 81.1 257.918 79.8416 254.357 81.6865C253.227 82.2731 252.56 83.105 252.256 84.3061C251.992 85.3541 252.132 86.3017 252.686 87.206C253.716 88.8827 256.132 90.3642 258.843 90.9811C260.187 91.2861 261.028 92.6227 260.723 93.9652C260.418 95.3065 259.08 96.1512 257.739 95.844C254.59 95.1277 250.492 93.1684 248.434 89.8127C247.178 87.7622 246.827 85.4359 247.421 83.0863C248.07 80.5123 249.674 78.4992 252.059 77.2607C257.497 74.439 265.716 76.2944 269.301 77.6696C276.873 80.5731 283.151 86.3414 286.096 93.0994C288.476 98.5605 288.57 104.335 286.371 109.8C282.127 120.339 270.358 125.633 259.031 125.633C255.716 125.633 252.441 125.18 249.401 124.272C239.059 121.184 230.642 112.029 227.926 102.132C221.114 113.531 208.917 122.951 194.925 127.16C183.815 130.5 163.209 131.083 155.181 118.424C153.578 115.896 153.295 113.232 153.046 110.882C152.871 109.23 152.705 107.669 152.096 106.4C151.412 104.974 150.945 104.885 148.584 104.65C148.095 104.601 147.582 104.551 147.04 104.478C139.605 103.484 133.654 98.8841 130.713 91.8562C127.351 83.8235 128.546 74.1598 133.758 67.237C139.256 59.9311 148.73 55.8849 159.09 56.4224C169.112 56.9388 177.808 61.7491 182.352 69.2911C183.062 70.47 182.682 72.0029 181.503 72.7121C180.324 73.4213 178.791 73.0439 178.079 71.8627C174.392 65.7426 167.198 61.8308 158.833 61.4009C150.249 60.9651 142.173 64.3441 137.742 70.2339C133.576 75.7686 132.621 83.4999 135.314 89.9307C137.585 95.3602 141.984 98.772 147.7 99.5349C148.183 99.5992 148.64 99.6448 149.076 99.688C151.699 99.9474 154.673 100.243 156.594 104.242C157.577 106.288 157.794 108.356 158.007 110.357C158.227 112.423 158.415 114.209 159.393 115.752C165.598 125.535 183.065 125.519 193.486 122.384C209.039 117.706 222.14 106.101 226.866 92.8202C229.573 85.2093 230.779 73.315 225.266 64.8453C221.487 59.0396 213.715 49.6328 204.105 51.8539L204.1 51.8551C202.762 52.1671 201.42 51.3282 201.11 49.988C200.949 49.2987 201.094 48.6093 201.452 48.059C201.631 45.6638 200.201 36.4417 199.752 34.8562C194.137 16.2343 173.512 6.9187 156.084 4.41366C136.261 1.56629 115.021 10.4216 101.988 26.9777C100.344 29.068 98.8305 31.2844 97.4913 33.5627C93.163 40.926 90.7617 48.9575 90.5478 56.7869C90.3468 64.1642 92.6161 69.575 95.2442 75.8399C95.7887 77.138 96.345 78.4665 96.8965 79.851C97.1933 80.4983 97.4516 81.1666 97.6689 81.8536C98.0779 83.1412 97.3862 84.5211 96.109 84.9627C94.8376 85.4067 93.4353 84.7512 92.9597 83.487C92.7435 82.9157 92.525 82.3525 92.3041 81.7952C90.7441 78.4746 87.7632 75.9217 83.4208 74.1936C73.5338 70.2585 59.3336 71.7996 52.2802 75.709C39.8434 82.6002 30.1865 97.0065 29.3206 109.963C28.9829 114.995 30.8456 117.681 33.4211 121.397C34.4552 122.886 35.5232 124.429 36.5398 126.264C36.5434 126.268 36.5446 126.271 36.5469 126.275C37.2141 127.479 36.7771 128.997 35.5724 129.663C34.6936 130.149 33.6489 130.05 32.8893 129.491C30.9168 129.522 24.8696 131.784 23.6052 132.553C10.0127 140.821 0.0846794 156.994 0.000543937 171.007C-0.0578835 180.832 4.59175 188.95 13.4458 194.483C21.5614 199.554 31.1669 202.257 40.4908 202.092C44.5304 202.021 48.4625 201.173 52.6226 200.277C58.2374 199.067 64.0417 197.819 70.1544 198.621C79.3929 199.836 87.9922 203.375 96.3087 206.797C104.202 210.046 112.363 213.404 120.863 214.626C125.88 215.35 143.062 216.988 153.379 207.735C167.926 194.689 170.38 171.348 158.738 156.763C150.962 147.018 138.755 140.309 126.085 138.814C116.527 137.684 107.159 140.049 101.04 145.134C93.475 151.421 92.0494 162.282 97.8618 169.345C99.6672 171.538 102.044 173.189 104.554 173.992C109.643 175.62 115.672 173.994 120.514 172.688C121.832 172.33 123.211 173.115 123.571 174.445C123.93 175.775 123.142 177.144 121.812 177.503C116.338 178.98 109.519 180.818 103.034 178.743C99.5713 177.634 96.4525 175.48 94.0114 172.514C86.4614 163.339 88.1851 149.337 97.8524 141.3C105 135.359 115.769 132.574 126.67 133.862C140.615 135.509 154.062 142.908 162.639 153.655C172.169 165.595 173.608 182.074 167.706 196.006C178.663 193.02 192.589 198.338 199.093 204.935C209.65 215.641 221.356 226.116 238.086 226.392C238.241 226.396 238.396 226.397 238.549 226.397C250.139 226.397 259.6 219.174 268.755 212.187C269.636 211.513 270.515 210.843 271.392 210.181C277.56 205.526 290.893 198.392 301.75 201.192C306.621 202.449 310.333 205.668 312.485 210.5C313.045 211.758 312.481 213.231 311.222 213.791C309.964 214.353 308.49 213.786 307.93 212.528C306.375 209.037 303.947 206.908 300.503 206.02C295.823 204.814 289.643 206.144 283.883 208.657C283.891 208.843 283.883 209.032 283.847 209.223C283.275 212.241 290.1 217.251 294.981 219.155C300.577 221.339 307.611 222.027 314.795 221.096C324.401 219.847 334.961 214.665 336.618 203.92C335.748 203.579 334.884 203.217 334.037 202.812C326.006 198.964 319.928 192.39 317.361 184.772C315.139 178.183 315.688 171.343 318.946 164.991C321.681 159.664 326.453 156.264 332.041 155.662C337.213 155.108 342.234 156.987 345.179 160.566C346.054 161.629 345.901 163.201 344.838 164.076C343.773 164.951 342.204 164.799 341.328 163.735C339.465 161.471 336.023 160.24 332.574 160.621C330.289 160.866 326.058 162.058 323.383 167.268C320.754 172.394 320.304 177.896 322.084 183.179C324.224 189.528 329.365 195.045 336.189 198.313C346.408 203.21 358.877 202.779 370.395 197.127C377.127 193.824 382.374 188.278 387.928 182.408C391.389 178.75 394.967 174.968 398.924 171.809C403.056 168.51 409.449 164.092 417.232 163.822C424.826 163.534 430.633 167.47 436.265 171.252C441.615 174.845 446.658 178.239 452.845 177.752C454.432 177.632 456.012 177.248 457.652 176.801Z"/>
</mask>
<path d="M457.652 176.801C451.064 174.061 447.438 169.746 445.119 166.331C443.538 164 442.483 161.494 441.462 159.068C439.565 154.565 437.927 150.674 433.397 148.859C425.039 145.503 414.208 148.506 407.043 150.494C395.479 153.698 386.069 152.2 380.183 146.321C379.291 147.439 378.367 148.526 377.447 149.596C373.924 153.698 370.598 157.573 370.062 162.689C369.983 163.457 370.215 164.237 370.607 164.502C371.745 165.277 372.04 166.826 371.266 167.965C370.783 168.675 369.999 169.057 369.202 169.057C368.718 169.057 368.231 168.916 367.801 168.624C365.859 167.305 364.825 164.832 365.102 162.17C365.799 155.503 369.798 150.848 373.664 146.345C376.576 142.955 379.328 139.751 380.553 135.858C382.305 130.299 380.862 124.049 376.593 118.711C368.466 108.544 351.479 102.582 339.147 109.906C336.444 111.511 332.743 114.411 330.816 117.469C326.523 126.758 318.863 131.873 308.609 132.251C307.726 132.282 306.742 132.175 305.795 132.07C304.807 131.96 302.984 131.757 302.456 132.02C302.469 132.047 302.431 132.21 302.436 132.528C302.464 134.279 302.597 136.053 302.725 137.768C303.159 143.567 303.609 149.562 300.135 155.54C290.824 171.554 270.931 177.931 256.724 178.525C256.039 178.555 255.342 178.569 254.642 178.569C237.301 178.57 215.862 169.793 206.789 152.315C206.155 151.094 206.63 149.588 207.853 148.953C209.071 148.321 210.58 148.794 211.214 150.018C219.696 166.351 240.416 174.202 256.517 173.543C269.465 173.001 287.529 167.304 295.825 153.033C298.522 148.394 298.166 143.643 297.754 138.141C297.619 136.354 297.481 134.507 297.45 132.61C297.421 130.787 297.972 129.349 299.092 128.332C301.073 126.528 304.001 126.852 306.348 127.115C307.146 127.204 307.907 127.281 308.425 127.268C316.551 126.968 322.429 123.145 325.967 115.982C326.02 115.808 326.087 115.635 326.182 115.469C326.271 115.314 326.37 115.163 326.464 115.01C326.479 114.975 326.499 114.946 326.515 114.91C332.879 100.433 328.318 78.6861 319.992 68.9137C312.323 59.9147 296.15 53.0516 284.307 57.1877C279.874 58.7323 276.267 55.7564 273.373 53.3635C272.515 52.6543 271.705 51.9836 270.951 51.4859C265.517 47.8943 257.043 46.8602 249.377 48.85C243.586 50.3514 235.623 54.1907 230.518 63.934C235.524 73.1596 234.715 84.6461 232.024 93.1099C232.061 93.3296 232.081 93.5539 232.058 93.7864C230.987 104.175 239.76 116.187 250.832 119.495C261.921 122.805 277.34 118.874 281.746 107.938C283.435 103.74 283.359 99.2989 281.526 95.0915C279.104 89.5335 273.866 84.7617 267.516 82.3256C264.318 81.1 257.918 79.8416 254.357 81.6865C253.227 82.2731 252.56 83.105 252.256 84.3061C251.992 85.3541 252.132 86.3017 252.686 87.206C253.716 88.8827 256.132 90.3642 258.843 90.9811C260.187 91.2861 261.028 92.6227 260.723 93.9652C260.418 95.3065 259.08 96.1512 257.739 95.844C254.59 95.1277 250.492 93.1684 248.434 89.8127C247.178 87.7622 246.827 85.4359 247.421 83.0863C248.07 80.5123 249.674 78.4992 252.059 77.2607C257.497 74.439 265.716 76.2944 269.301 77.6696C276.873 80.5731 283.151 86.3414 286.096 93.0994C288.476 98.5605 288.57 104.335 286.371 109.8C282.127 120.339 270.358 125.633 259.031 125.633C255.716 125.633 252.441 125.18 249.401 124.272C239.059 121.184 230.642 112.029 227.926 102.132C221.114 113.531 208.917 122.951 194.925 127.16C183.815 130.5 163.209 131.083 155.181 118.424C153.578 115.896 153.295 113.232 153.046 110.882C152.871 109.23 152.705 107.669 152.096 106.4C151.412 104.974 150.945 104.885 148.584 104.65C148.095 104.601 147.582 104.551 147.04 104.478C139.605 103.484 133.654 98.8841 130.713 91.8562C127.351 83.8235 128.546 74.1598 133.758 67.237C139.256 59.9311 148.73 55.8849 159.09 56.4224C169.112 56.9388 177.808 61.7491 182.352 69.2911C183.062 70.47 182.682 72.0029 181.503 72.7121C180.324 73.4213 178.791 73.0439 178.079 71.8627C174.392 65.7426 167.198 61.8308 158.833 61.4009C150.249 60.9651 142.173 64.3441 137.742 70.2339C133.576 75.7686 132.621 83.4999 135.314 89.9307C137.585 95.3602 141.984 98.772 147.7 99.5349C148.183 99.5992 148.64 99.6448 149.076 99.688C151.699 99.9474 154.673 100.243 156.594 104.242C157.577 106.288 157.794 108.356 158.007 110.357C158.227 112.423 158.415 114.209 159.393 115.752C165.598 125.535 183.065 125.519 193.486 122.384C209.039 117.706 222.14 106.101 226.866 92.8202C229.573 85.2093 230.779 73.315 225.266 64.8453C221.487 59.0396 213.715 49.6328 204.105 51.8539L204.1 51.8551C202.762 52.1671 201.42 51.3282 201.11 49.988C200.949 49.2987 201.094 48.6093 201.452 48.059C201.631 45.6638 200.201 36.4417 199.752 34.8562C194.137 16.2343 173.512 6.9187 156.084 4.41366C136.261 1.56629 115.021 10.4216 101.988 26.9777C100.344 29.068 98.8305 31.2844 97.4913 33.5627C93.163 40.926 90.7617 48.9575 90.5478 56.7869C90.3468 64.1642 92.6161 69.575 95.2442 75.8399C95.7887 77.138 96.345 78.4665 96.8965 79.851C97.1933 80.4983 97.4516 81.1666 97.6689 81.8536C98.0779 83.1412 97.3862 84.5211 96.109 84.9627C94.8376 85.4067 93.4353 84.7512 92.9597 83.487C92.7435 82.9157 92.525 82.3525 92.3041 81.7952C90.7441 78.4746 87.7632 75.9217 83.4208 74.1936C73.5338 70.2585 59.3336 71.7996 52.2802 75.709C39.8434 82.6002 30.1865 97.0065 29.3206 109.963C28.9829 114.995 30.8456 117.681 33.4211 121.397C34.4552 122.886 35.5232 124.429 36.5398 126.264C36.5434 126.268 36.5446 126.271 36.5469 126.275C37.2141 127.479 36.7771 128.997 35.5724 129.663C34.6936 130.149 33.6489 130.05 32.8893 129.491C30.9168 129.522 24.8696 131.784 23.6052 132.553C10.0127 140.821 0.0846794 156.994 0.000543937 171.007C-0.0578835 180.832 4.59175 188.95 13.4458 194.483C21.5614 199.554 31.1669 202.257 40.4908 202.092C44.5304 202.021 48.4625 201.173 52.6226 200.277C58.2374 199.067 64.0417 197.819 70.1544 198.621C79.3929 199.836 87.9922 203.375 96.3087 206.797C104.202 210.046 112.363 213.404 120.863 214.626C125.88 215.35 143.062 216.988 153.379 207.735C167.926 194.689 170.38 171.348 158.738 156.763C150.962 147.018 138.755 140.309 126.085 138.814C116.527 137.684 107.159 140.049 101.04 145.134C93.475 151.421 92.0494 162.282 97.8618 169.345C99.6672 171.538 102.044 173.189 104.554 173.992C109.643 175.62 115.672 173.994 120.514 172.688C121.832 172.33 123.211 173.115 123.571 174.445C123.93 175.775 123.142 177.144 121.812 177.503C116.338 178.98 109.519 180.818 103.034 178.743C99.5713 177.634 96.4525 175.48 94.0114 172.514C86.4614 163.339 88.1851 149.337 97.8524 141.3C105 135.359 115.769 132.574 126.67 133.862C140.615 135.509 154.062 142.908 162.639 153.655C172.169 165.595 173.608 182.074 167.706 196.006C178.663 193.02 192.589 198.338 199.093 204.935C209.65 215.641 221.356 226.116 238.086 226.392C238.241 226.396 238.396 226.397 238.549 226.397C250.139 226.397 259.6 219.174 268.755 212.187C269.636 211.513 270.515 210.843 271.392 210.181C277.56 205.526 290.893 198.392 301.75 201.192C306.621 202.449 310.333 205.668 312.485 210.5C313.045 211.758 312.481 213.231 311.222 213.791C309.964 214.353 308.49 213.786 307.93 212.528C306.375 209.037 303.947 206.908 300.503 206.02C295.823 204.814 289.643 206.144 283.883 208.657C283.891 208.843 283.883 209.032 283.847 209.223C283.275 212.241 290.1 217.251 294.981 219.155C300.577 221.339 307.611 222.027 314.795 221.096C324.401 219.847 334.961 214.665 336.618 203.92C335.748 203.579 334.884 203.217 334.037 202.812C326.006 198.964 319.928 192.39 317.361 184.772C315.139 178.183 315.688 171.343 318.946 164.991C321.681 159.664 326.453 156.264 332.041 155.662C337.213 155.108 342.234 156.987 345.179 160.566C346.054 161.629 345.901 163.201 344.838 164.076C343.773 164.951 342.204 164.799 341.328 163.735C339.465 161.471 336.023 160.24 332.574 160.621C330.289 160.866 326.058 162.058 323.383 167.268C320.754 172.394 320.304 177.896 322.084 183.179C324.224 189.528 329.365 195.045 336.189 198.313C346.408 203.21 358.877 202.779 370.395 197.127C377.127 193.824 382.374 188.278 387.928 182.408C391.389 178.75 394.967 174.968 398.924 171.809C403.056 168.51 409.449 164.092 417.232 163.822C424.826 163.534 430.633 167.47 436.265 171.252C441.615 174.845 446.658 178.239 452.845 177.752C454.432 177.632 456.012 177.248 457.652 176.801Z" fill="#28292F" stroke="#FBD043" stroke-width="2" mask="url(#path-1-inside-1_51_21)"/>
<mask id="path-2-inside-2_51_21" fill="white">
<path d="M1046.66 111.399C1052.47 109.007 1058.78 109.607 1064.94 110.329C1062.78 109.469 1060.7 108.497 1058.66 107.544C1057.77 107.126 1056.87 106.708 1055.97 106.301C1048.02 102.699 1040.21 99.7001 1032.18 102.473C1022.77 105.723 1014.46 113.505 1008.28 119.92C1008.05 120.154 1007.87 120.43 1007.68 120.698C1007.32 121.223 1006.86 121.876 1006.22 122.464C994.59 133.099 971.374 144.457 955.115 132.177C949.828 128.185 946.036 122.724 942.897 117.918C933.408 103.387 922.18 90.7105 904.455 96.2572C904.034 96.3896 903.6 96.5981 903.098 96.8394C902.517 97.1197 901.934 97.393 901.311 97.6119C901.06 97.7001 900.733 97.8316 900.366 97.9769C898.107 98.8757 896.381 99.4908 894.906 99.2814C893.913 99.1396 893.071 98.4821 892.692 97.5556C891.487 94.6101 894.107 92.2728 895.516 91.0168C895.744 90.8143 895.952 90.6361 896.091 90.4864C896.958 89.5496 897.906 88.8143 898.826 88.1024C899.891 87.2771 900.897 86.4969 901.478 85.592C907.677 75.9372 907.831 66.4104 901.925 58.0402C892.833 45.157 870.858 37.5679 853.934 41.4788C845.704 43.3776 835.397 48.7124 833.038 63.3369L831.304 74.0877C831.06 75.6189 829.636 76.6716 828.084 76.4268C826.551 76.1898 825.495 74.7607 825.723 73.2261C827.089 64.0194 828.638 53.5843 825.537 44.4053C823.562 38.561 819.533 32.7721 813.219 26.7089C790.511 4.9045 756.121 -4.09376 725.624 3.78338C711.281 7.48839 699.54 15.1112 688.672 27.7738C681.677 35.9243 673.254 46.9182 670.196 59.7019C665.751 78.2737 673.495 99.3282 689.467 112.093C704.414 124.038 725.521 128.482 745.924 123.976C751.734 122.695 756.979 120.761 761.558 118.285C764.115 116.088 766.96 114.069 770.106 112.296C770.744 111.716 771.381 111.133 771.968 110.52C784.971 96.9276 783.066 75.2789 773.845 63.0177C765.698 52.1873 753.631 49.8248 740.736 56.5298C736.72 58.6172 732.014 63.093 731.173 67.9822C730.736 70.5358 731.458 72.7798 733.387 74.8429C734.452 75.9813 734.39 77.7668 733.25 78.8299C732.111 79.8913 730.326 79.8317 729.258 78.6924C726.133 75.349 724.87 71.3161 725.606 67.0289C726.777 60.208 732.739 54.3283 738.129 51.5264C753.497 43.5394 768.537 46.567 778.361 59.6301C787.524 71.8144 790.336 92.092 781.233 107.53C789.992 104.823 800.36 103.812 812.407 105.355C824.866 106.951 841.486 114.364 847.327 130.008C853.595 146.791 843.46 164.387 830.738 172.42C822.35 177.716 810.551 178.963 802.043 175.46C795.558 172.789 791.303 167.759 789.738 160.913C787.305 150.268 793.633 139.313 803.553 136.989C809.028 135.707 814.166 136.491 817.3 139.086C818.967 140.466 820.913 143.051 820.715 147.523C820.592 150.292 818.995 153.032 816.551 154.678C814.301 156.193 811.664 156.59 809.312 155.76C807.841 155.242 807.068 153.631 807.589 152.163C808.107 150.693 809.724 149.926 811.191 150.441C812.113 150.767 813.038 150.242 813.393 150.002C814.369 149.345 815.027 148.273 815.073 147.272C815.15 145.518 814.7 144.261 813.694 143.428C811.966 141.997 808.497 141.623 804.845 142.481C797.165 144.279 793.683 152.814 795.246 159.658C796.4 164.712 799.413 168.274 804.198 170.245C811.114 173.096 820.791 172.029 827.719 167.653C838.561 160.805 847.263 145.976 842.035 131.979C837.074 118.691 822.588 112.345 811.69 110.95C795.718 108.905 783.006 111.695 773.366 116.985C770.873 119.173 768.036 121.117 764.948 122.846C759.433 127.652 755.478 133.363 753.031 139.123C745.442 156.991 750.078 181.487 762.71 198.792C762.956 198.872 763.197 198.974 763.422 199.127C764.176 199.638 764.593 200.451 764.645 201.294C767.745 205.123 771.256 208.537 775.137 211.354C791.943 223.547 819.643 226.381 836.896 217.669C848.982 211.564 859.047 200.45 865.484 186.183C862.379 185.228 859.566 183.89 857.137 182.189C851.109 177.969 847.35 171.252 847.328 164.659C847.322 163.102 848.584 161.835 850.143 161.83C850.147 161.83 850.148 161.83 850.153 161.83C851.709 161.83 852.972 163.087 852.978 164.641C852.994 169.43 855.83 174.385 860.381 177.572C864.397 180.385 869.817 181.998 876.052 182.238C889.448 182.765 901.851 177.124 915.161 164.53C916.294 163.458 918.081 163.505 919.154 164.637C920.226 165.767 920.178 167.553 919.045 168.625C905.345 181.587 891.788 187.91 877.665 187.91C877.056 187.91 876.446 187.898 875.836 187.875C874.29 187.816 872.792 187.665 871.33 187.458C869.287 196.767 878.717 205.805 885.024 209.887C895.411 216.603 909.793 217.729 922.561 212.823C934.352 208.292 944.567 197.84 951.373 183.379C947.077 178.547 945.295 172.074 945.962 166.474C946.82 159.249 952.04 151.433 964.105 151.159C965.575 151.126 970.751 151.35 974.757 155.642C978.054 159.172 979.422 164.222 978.823 170.649C978.677 172.2 977.269 173.34 975.75 173.196C974.196 173.051 973.054 171.677 973.2 170.126C973.643 165.37 972.777 161.792 970.627 159.489C968.714 157.442 966.039 156.766 964.233 156.799C953.887 157.034 951.931 164.109 951.57 167.139C950.772 173.841 954.947 182.097 963.315 184.315C974.207 187.201 991.532 183.354 998.978 173.215C1000.73 170.834 1000.43 168.935 999.982 166.06C999.62 163.736 999.207 161.1 1000.01 158.017C1001.97 150.472 1008.8 150.847 1012.86 151.068C1014.19 151.142 1015.42 151.139 1016.85 151.223C1017.85 151.281 1018.99 151.35 1019.61 151.164C1025.22 149.491 1026.63 144.069 1028.12 135.985C1028.51 133.865 1028.88 131.863 1029.41 129.967C1031.78 121.384 1037.59 115.138 1046.66 111.399Z"/>
</mask>
<path d="M1046.66 111.399C1052.47 109.007 1058.78 109.607 1064.94 110.329C1062.78 109.469 1060.7 108.497 1058.66 107.544C1057.77 107.126 1056.87 106.708 1055.97 106.301C1048.02 102.699 1040.21 99.7001 1032.18 102.473C1022.77 105.723 1014.46 113.505 1008.28 119.92C1008.05 120.154 1007.87 120.43 1007.68 120.698C1007.32 121.223 1006.86 121.876 1006.22 122.464C994.59 133.099 971.374 144.457 955.115 132.177C949.828 128.185 946.036 122.724 942.897 117.918C933.408 103.387 922.18 90.7105 904.455 96.2572C904.034 96.3896 903.6 96.5981 903.098 96.8394C902.517 97.1197 901.934 97.393 901.311 97.6119C901.06 97.7001 900.733 97.8316 900.366 97.9769C898.107 98.8757 896.381 99.4908 894.906 99.2814C893.913 99.1396 893.071 98.4821 892.692 97.5556C891.487 94.6101 894.107 92.2728 895.516 91.0168C895.744 90.8143 895.952 90.6361 896.091 90.4864C896.958 89.5496 897.906 88.8143 898.826 88.1024C899.891 87.2771 900.897 86.4969 901.478 85.592C907.677 75.9372 907.831 66.4104 901.925 58.0402C892.833 45.157 870.858 37.5679 853.934 41.4788C845.704 43.3776 835.397 48.7124 833.038 63.3369L831.304 74.0877C831.06 75.6189 829.636 76.6716 828.084 76.4268C826.551 76.1898 825.495 74.7607 825.723 73.2261C827.089 64.0194 828.638 53.5843 825.537 44.4053C823.562 38.561 819.533 32.7721 813.219 26.7089C790.511 4.9045 756.121 -4.09376 725.624 3.78338C711.281 7.48839 699.54 15.1112 688.672 27.7738C681.677 35.9243 673.254 46.9182 670.196 59.7019C665.751 78.2737 673.495 99.3282 689.467 112.093C704.414 124.038 725.521 128.482 745.924 123.976C751.734 122.695 756.979 120.761 761.558 118.285C764.115 116.088 766.96 114.069 770.106 112.296C770.744 111.716 771.381 111.133 771.968 110.52C784.971 96.9276 783.066 75.2789 773.845 63.0177C765.698 52.1873 753.631 49.8248 740.736 56.5298C736.72 58.6172 732.014 63.093 731.173 67.9822C730.736 70.5358 731.458 72.7798 733.387 74.8429C734.452 75.9813 734.39 77.7668 733.25 78.8299C732.111 79.8913 730.326 79.8317 729.258 78.6924C726.133 75.349 724.87 71.3161 725.606 67.0289C726.777 60.208 732.739 54.3283 738.129 51.5264C753.497 43.5394 768.537 46.567 778.361 59.6301C787.524 71.8144 790.336 92.092 781.233 107.53C789.992 104.823 800.36 103.812 812.407 105.355C824.866 106.951 841.486 114.364 847.327 130.008C853.595 146.791 843.46 164.387 830.738 172.42C822.35 177.716 810.551 178.963 802.043 175.46C795.558 172.789 791.303 167.759 789.738 160.913C787.305 150.268 793.633 139.313 803.553 136.989C809.028 135.707 814.166 136.491 817.3 139.086C818.967 140.466 820.913 143.051 820.715 147.523C820.592 150.292 818.995 153.032 816.551 154.678C814.301 156.193 811.664 156.59 809.312 155.76C807.841 155.242 807.068 153.631 807.589 152.163C808.107 150.693 809.724 149.926 811.191 150.441C812.113 150.767 813.038 150.242 813.393 150.002C814.369 149.345 815.027 148.273 815.073 147.272C815.15 145.518 814.7 144.261 813.694 143.428C811.966 141.997 808.497 141.623 804.845 142.481C797.165 144.279 793.683 152.814 795.246 159.658C796.4 164.712 799.413 168.274 804.198 170.245C811.114 173.096 820.791 172.029 827.719 167.653C838.561 160.805 847.263 145.976 842.035 131.979C837.074 118.691 822.588 112.345 811.69 110.95C795.718 108.905 783.006 111.695 773.366 116.985C770.873 119.173 768.036 121.117 764.948 122.846C759.433 127.652 755.478 133.363 753.031 139.123C745.442 156.991 750.078 181.487 762.71 198.792C762.956 198.872 763.197 198.974 763.422 199.127C764.176 199.638 764.593 200.451 764.645 201.294C767.745 205.123 771.256 208.537 775.137 211.354C791.943 223.547 819.643 226.381 836.896 217.669C848.982 211.564 859.047 200.45 865.484 186.183C862.379 185.228 859.566 183.89 857.137 182.189C851.109 177.969 847.35 171.252 847.328 164.659C847.322 163.102 848.584 161.835 850.143 161.83C850.147 161.83 850.148 161.83 850.153 161.83C851.709 161.83 852.972 163.087 852.978 164.641C852.994 169.43 855.83 174.385 860.381 177.572C864.397 180.385 869.817 181.998 876.052 182.238C889.448 182.765 901.851 177.124 915.161 164.53C916.294 163.458 918.081 163.505 919.154 164.637C920.226 165.767 920.178 167.553 919.045 168.625C905.345 181.587 891.788 187.91 877.665 187.91C877.056 187.91 876.446 187.898 875.836 187.875C874.29 187.816 872.792 187.665 871.33 187.458C869.287 196.767 878.717 205.805 885.024 209.887C895.411 216.603 909.793 217.729 922.561 212.823C934.352 208.292 944.567 197.84 951.373 183.379C947.077 178.547 945.295 172.074 945.962 166.474C946.82 159.249 952.04 151.433 964.105 151.159C965.575 151.126 970.751 151.35 974.757 155.642C978.054 159.172 979.422 164.222 978.823 170.649C978.677 172.2 977.269 173.34 975.75 173.196C974.196 173.051 973.054 171.677 973.2 170.126C973.643 165.37 972.777 161.792 970.627 159.489C968.714 157.442 966.039 156.766 964.233 156.799C953.887 157.034 951.931 164.109 951.57 167.139C950.772 173.841 954.947 182.097 963.315 184.315C974.207 187.201 991.532 183.354 998.978 173.215C1000.73 170.834 1000.43 168.935 999.982 166.06C999.62 163.736 999.207 161.1 1000.01 158.017C1001.97 150.472 1008.8 150.847 1012.86 151.068C1014.19 151.142 1015.42 151.139 1016.85 151.223C1017.85 151.281 1018.99 151.35 1019.61 151.164C1025.22 149.491 1026.63 144.069 1028.12 135.985C1028.51 133.865 1028.88 131.863 1029.41 129.967C1031.78 121.384 1037.59 115.138 1046.66 111.399Z" fill="#28292F" stroke="#FBD043" stroke-width="2" mask="url(#path-2-inside-2_51_21)"/>
<mask id="path-3-inside-3_51_21" fill="white">
<path d="M747.861 137.059C749.152 134.052 750.817 131.059 752.847 128.172C751.003 128.73 749.124 129.247 747.169 129.673C725.019 134.511 702.049 129.684 685.719 116.772C676.778 109.703 670.178 100.292 666.461 90.0682C652.145 90.3346 639.492 94.2136 630.744 101.119C619.603 109.91 609.583 127.085 611.981 142.902C613.088 150.21 617.081 157.042 622.931 161.648C631.251 168.194 647.23 169.999 657.828 165.592C664.44 162.842 668.125 158.2 668.785 151.793C669.645 143.422 663.58 137.741 657.58 136.004C652.386 134.5 645.51 135.498 641.77 142.794C641.063 144.177 639.351 144.725 637.96 144.028C636.562 143.329 636.003 141.643 636.712 140.262C641.089 131.725 649.903 127.94 659.176 130.625C667.355 132.993 675.617 140.803 674.428 152.358C673.569 160.718 668.455 167.251 660.031 170.755C655.404 172.679 649.988 173.601 644.503 173.601C635.176 173.601 625.64 170.941 619.399 166.029C612.441 160.551 607.692 152.424 606.374 143.731C605.887 140.526 605.862 137.277 606.19 134.047C594.689 126.028 578.008 126.283 566.45 134.683C561.559 138.239 558.11 143.273 554.458 148.603C549.816 155.378 545.018 162.384 536.934 166.388C532.981 168.347 528.6 168.825 524.451 169.148C517.611 169.678 513.23 167.75 508.579 165.711C506.776 164.922 504.913 164.104 502.805 163.389C502.006 163.118 501.234 162.813 500.468 162.51C498.656 161.794 497.091 161.175 495.357 161.123C492.2 161.031 489.806 161.285 487.356 161.986C487.171 162.039 486.987 162.091 486.802 162.143C494.759 164.935 498.742 173.675 500.968 178.56C506.291 190.248 512.078 197.631 524.457 198.324C535.769 198.954 544.508 193.328 553.745 187.367C558.689 184.177 563.802 180.878 569.429 178.513C570.941 177.878 572.43 177.395 573.911 176.98C574.287 176.634 574.759 176.38 575.3 176.277C577.492 175.862 579.614 175.681 581.677 175.681C594.462 175.012 606.162 181.291 617.562 187.436C626.322 192.157 635.378 197.038 644.545 198.363C658.683 200.404 672.577 196.741 681.742 188.567C682.903 187.528 684.696 187.619 685.746 188.77C686.797 189.918 686.705 191.689 685.541 192.726C677.008 200.338 664.957 204.52 652.193 204.52C649.394 204.52 646.562 204.319 643.724 203.909C633.635 202.451 624.2 197.397 615.075 192.479C616.885 194.199 618.6 195.908 620.221 197.524C622.77 200.066 625.179 202.468 627.378 204.344C628.646 205.426 629.867 206.485 631.057 207.517C640.583 215.778 647.464 221.746 660.098 224.024C668.199 225.484 677.202 224.567 684.788 221.502C692.657 218.325 697.125 213.14 702.3 207.137C703.213 206.079 704.143 204.998 705.114 203.903C705.116 203.9 705.117 203.897 705.121 203.894C706.149 202.732 707.944 202.614 709.122 203.633C709.903 204.308 710.219 205.313 710.041 206.252C711.049 207.623 714.585 210.514 718.161 212.85C732.677 222.339 748.588 213.983 758.051 201.683C744.201 182.961 739.386 156.802 747.861 137.059Z"/>
</mask>
<path d="M747.861 137.059C749.152 134.052 750.817 131.059 752.847 128.172C751.003 128.73 749.124 129.247 747.169 129.673C725.019 134.511 702.049 129.684 685.719 116.772C676.778 109.703 670.178 100.292 666.461 90.0682C652.145 90.3346 639.492 94.2136 630.744 101.119C619.603 109.91 609.583 127.085 611.981 142.902C613.088 150.21 617.081 157.042 622.931 161.648C631.251 168.194 647.23 169.999 657.828 165.592C664.44 162.842 668.125 158.2 668.785 151.793C669.645 143.422 663.58 137.741 657.58 136.004C652.386 134.5 645.51 135.498 641.77 142.794C641.063 144.177 639.351 144.725 637.96 144.028C636.562 143.329 636.003 141.643 636.712 140.262C641.089 131.725 649.903 127.94 659.176 130.625C667.355 132.993 675.617 140.803 674.428 152.358C673.569 160.718 668.455 167.251 660.031 170.755C655.404 172.679 649.988 173.601 644.503 173.601C635.176 173.601 625.64 170.941 619.399 166.029C612.441 160.551 607.692 152.424 606.374 143.731C605.887 140.526 605.862 137.277 606.19 134.047C594.689 126.028 578.008 126.283 566.45 134.683C561.559 138.239 558.11 143.273 554.458 148.603C549.816 155.378 545.018 162.384 536.934 166.388C532.981 168.347 528.6 168.825 524.451 169.148C517.611 169.678 513.23 167.75 508.579 165.711C506.776 164.922 504.913 164.104 502.805 163.389C502.006 163.118 501.234 162.813 500.468 162.51C498.656 161.794 497.091 161.175 495.357 161.123C492.2 161.031 489.806 161.285 487.356 161.986C487.171 162.039 486.987 162.091 486.802 162.143C494.759 164.935 498.742 173.675 500.968 178.56C506.291 190.248 512.078 197.631 524.457 198.324C535.769 198.954 544.508 193.328 553.745 187.367C558.689 184.177 563.802 180.878 569.429 178.513C570.941 177.878 572.43 177.395 573.911 176.98C574.287 176.634 574.759 176.38 575.3 176.277C577.492 175.862 579.614 175.681 581.677 175.681C594.462 175.012 606.162 181.291 617.562 187.436C626.322 192.157 635.378 197.038 644.545 198.363C658.683 200.404 672.577 196.741 681.742 188.567C682.903 187.528 684.696 187.619 685.746 188.77C686.797 189.918 686.705 191.689 685.541 192.726C677.008 200.338 664.957 204.52 652.193 204.52C649.394 204.52 646.562 204.319 643.724 203.909C633.635 202.451 624.2 197.397 615.075 192.479C616.885 194.199 618.6 195.908 620.221 197.524C622.77 200.066 625.179 202.468 627.378 204.344C628.646 205.426 629.867 206.485 631.057 207.517C640.583 215.778 647.464 221.746 660.098 224.024C668.199 225.484 677.202 224.567 684.788 221.502C692.657 218.325 697.125 213.14 702.3 207.137C703.213 206.079 704.143 204.998 705.114 203.903C705.116 203.9 705.117 203.897 705.121 203.894C706.149 202.732 707.944 202.614 709.122 203.633C709.903 204.308 710.219 205.313 710.041 206.252C711.049 207.623 714.585 210.514 718.161 212.85C732.677 222.339 748.588 213.983 758.051 201.683C744.201 182.961 739.386 156.802 747.861 137.059Z" fill="#28292F" stroke="#FBD043" stroke-width="2" mask="url(#path-3-inside-3_51_21)"/>
<mask id="path-4-inside-4_51_21" fill="white">
<path d="M1462.35 172.614C1468.94 169.879 1472.56 165.572 1474.88 162.162C1476.46 159.835 1477.52 157.333 1478.54 154.912C1480.43 150.417 1482.07 146.533 1486.6 144.72C1494.96 141.371 1505.79 144.368 1512.96 146.353C1524.52 149.551 1533.93 148.056 1539.82 142.187C1540.71 143.303 1541.63 144.388 1542.55 145.456C1546.08 149.551 1549.4 153.419 1549.94 158.527C1550.02 159.293 1549.78 160.072 1549.39 160.337C1548.26 161.11 1547.96 162.657 1548.73 163.794C1549.22 164.502 1550 164.883 1550.8 164.883C1551.28 164.883 1551.77 164.743 1552.2 164.452C1554.14 163.135 1555.18 160.666 1554.9 158.009C1554.2 151.354 1550.2 146.707 1546.34 142.212C1543.42 138.827 1540.67 135.629 1539.45 131.742C1537.69 126.193 1539.14 119.954 1543.41 114.625C1551.53 104.476 1568.52 98.5242 1580.85 105.835C1583.56 107.438 1587.26 110.332 1589.18 113.385C1593.48 122.659 1601.14 127.764 1611.39 128.142C1612.27 128.172 1613.26 128.066 1614.2 127.961C1615.19 127.851 1617.02 127.648 1617.54 127.911C1617.53 127.938 1617.57 128.101 1617.56 128.418C1617.54 130.167 1617.4 131.937 1617.28 133.649C1616.84 139.438 1616.39 145.423 1619.86 151.39C1629.18 167.376 1649.07 173.742 1663.28 174.336C1663.96 174.365 1664.66 174.379 1665.36 174.379C1682.7 174.38 1704.14 165.618 1713.21 148.171C1713.85 146.952 1713.37 145.448 1712.15 144.815C1710.93 144.184 1709.42 144.656 1708.79 145.877C1700.3 162.182 1679.58 170.02 1663.48 169.362C1650.53 168.821 1632.47 163.134 1624.17 148.888C1621.48 144.256 1621.83 139.514 1622.25 134.021C1622.38 132.238 1622.52 130.394 1622.55 128.5C1622.58 126.68 1622.03 125.244 1620.91 124.23C1618.93 122.429 1616 122.752 1613.65 123.014C1612.85 123.103 1612.09 123.18 1611.58 123.167C1603.45 122.867 1597.57 119.051 1594.03 111.901C1593.98 111.727 1593.91 111.555 1593.82 111.389C1593.73 111.234 1593.63 111.084 1593.54 110.931C1593.52 110.896 1593.5 110.867 1593.48 110.83C1587.12 96.3792 1591.68 74.6697 1600.01 64.9142C1607.68 55.9308 1623.85 49.0796 1635.69 53.2085C1640.13 54.7505 1643.73 51.7797 1646.63 49.391C1647.48 48.683 1648.29 48.0135 1649.05 47.5166C1654.48 43.9312 1662.96 42.899 1670.62 44.8853C1676.41 46.3841 1684.38 50.2168 1689.48 59.9431C1684.48 69.1527 1685.28 80.6193 1687.98 89.0684C1687.94 89.2877 1687.92 89.5117 1687.94 89.7438C1689.01 100.114 1680.24 112.105 1669.17 115.407C1658.08 118.712 1642.66 114.788 1638.25 103.871C1636.56 99.68 1636.64 95.2467 1638.47 91.0466C1640.9 85.4982 1646.13 80.7347 1652.48 78.3029C1655.68 77.0793 1662.08 75.8232 1665.64 77.6649C1666.77 78.2504 1667.44 79.0808 1667.74 80.2799C1668.01 81.3261 1667.87 82.272 1667.31 83.1748C1666.28 84.8485 1663.87 86.3275 1661.16 86.9433C1659.81 87.2477 1658.97 88.582 1659.28 89.9222C1659.58 91.2612 1660.92 92.1045 1662.26 91.7977C1665.41 91.0827 1669.51 89.1268 1671.57 85.7769C1672.82 83.73 1673.17 81.4077 1672.58 79.0622C1671.93 76.4927 1670.33 74.483 1667.94 73.2467C1662.5 70.4299 1654.28 72.2821 1650.7 73.6549C1643.13 76.5533 1636.85 82.3117 1633.9 89.0579C1631.52 94.5095 1631.43 100.274 1633.63 105.73C1637.87 116.251 1649.64 121.535 1660.97 121.535C1664.28 121.535 1667.56 121.083 1670.6 120.177C1680.94 117.094 1689.36 107.954 1692.07 98.0751C1698.89 109.454 1711.08 118.857 1725.08 123.06C1736.18 126.393 1756.79 126.975 1764.82 114.339C1766.42 111.815 1766.7 109.156 1766.95 106.81C1767.13 105.161 1767.29 103.603 1767.9 102.336C1768.59 100.912 1769.05 100.823 1771.42 100.589C1771.9 100.54 1772.42 100.489 1772.96 100.417C1780.4 99.4246 1786.35 94.8326 1789.29 87.8169C1792.65 79.7982 1791.45 70.1512 1786.24 63.2404C1780.74 55.9472 1771.27 51.908 1760.91 52.4445C1750.89 52.9601 1742.19 57.762 1737.65 65.2909C1736.94 66.4678 1737.32 67.998 1738.5 68.706C1739.68 69.414 1741.21 69.0373 1741.92 67.8581C1745.61 61.7486 1752.8 57.8436 1761.17 57.4144C1769.75 56.9794 1777.83 60.3525 1782.26 66.2321C1786.42 71.7572 1787.38 79.4751 1784.69 85.8947C1782.41 91.3148 1778.02 94.7206 1772.3 95.4823C1771.82 95.5464 1771.36 95.5919 1770.92 95.6351C1768.3 95.894 1765.33 96.1891 1763.41 100.182C1762.42 102.224 1762.21 104.288 1761.99 106.285C1761.77 108.348 1761.59 110.131 1760.61 111.671C1754.4 121.437 1736.93 121.421 1726.51 118.292C1710.96 113.622 1697.86 102.037 1693.13 88.7792C1690.43 81.1815 1689.22 69.3078 1694.73 60.8529C1698.51 55.0572 1706.28 45.6668 1715.89 47.8841L1715.9 47.8852C1717.24 48.1966 1718.58 47.3592 1718.89 46.0214C1719.05 45.3332 1718.91 44.6451 1718.55 44.0957C1718.37 41.7047 1719.8 32.4985 1720.25 30.9158C1725.86 12.3262 1746.49 3.02681 1763.92 0.526122C1783.74 -2.31631 1804.98 6.52359 1818.01 23.051C1819.66 25.1376 1821.17 27.3502 1822.51 29.6246C1826.84 36.975 1829.24 44.9927 1829.45 52.8085C1829.65 60.1729 1827.38 65.5743 1824.76 71.8284C1824.21 73.1242 1823.66 74.4504 1823.1 75.8325C1822.81 76.4787 1822.55 77.1458 1822.33 77.8317C1821.92 79.117 1822.61 80.4945 1823.89 80.9354C1825.16 81.3786 1826.56 80.7243 1827.04 79.4622C1827.26 78.8919 1827.48 78.3297 1827.7 77.7734C1829.26 74.4585 1832.24 71.91 1836.58 70.185C1846.47 66.2566 1860.67 67.7951 1867.72 71.6977C1880.16 78.577 1889.81 92.9582 1890.68 105.892C1891.02 110.916 1889.15 113.597 1886.58 117.306C1885.54 118.793 1884.48 120.333 1883.46 122.165C1883.46 122.169 1883.46 122.172 1883.45 122.176C1882.79 123.378 1883.22 124.893 1884.43 125.558C1885.31 126.043 1886.35 125.944 1887.11 125.387C1889.08 125.417 1895.13 127.675 1896.39 128.443C1909.99 136.697 1919.92 152.842 1920 166.83C1920.06 176.638 1915.41 184.742 1906.55 190.266C1898.44 195.328 1888.83 198.026 1879.51 197.861C1875.47 197.79 1871.54 196.944 1867.38 196.05C1861.76 194.841 1855.96 193.596 1849.85 194.396C1840.61 195.609 1832.01 199.142 1823.69 202.558C1815.8 205.802 1807.64 209.154 1799.14 210.374C1794.12 211.096 1776.94 212.731 1766.62 203.495C1752.07 190.471 1749.62 167.171 1761.26 152.611C1769.04 142.883 1781.24 136.186 1793.92 134.693C1803.47 133.565 1812.84 135.926 1818.96 141.002C1826.52 147.278 1827.95 158.121 1822.14 165.171C1820.33 167.361 1817.96 169.009 1815.45 169.81C1810.36 171.435 1804.33 169.812 1799.49 168.508C1798.17 168.151 1796.79 168.934 1796.43 170.263C1796.07 171.59 1796.86 172.957 1798.19 173.315C1803.66 174.789 1810.48 176.624 1816.97 174.552C1820.43 173.446 1823.55 171.296 1825.99 168.335C1833.54 159.175 1831.81 145.197 1822.15 137.175C1815 131.244 1804.23 128.464 1793.33 129.75C1779.38 131.393 1765.94 138.78 1757.36 149.508C1747.83 161.427 1746.39 177.878 1752.29 191.786C1741.34 188.806 1727.41 194.114 1720.91 200.699C1710.35 211.386 1698.64 221.844 1681.91 222.119C1681.76 222.123 1681.6 222.124 1681.45 222.124C1669.86 222.124 1660.4 214.913 1651.25 207.939C1650.36 207.266 1649.49 206.597 1648.61 205.936C1642.44 201.289 1629.11 194.167 1618.25 196.963C1613.38 198.218 1609.67 201.431 1607.51 206.254C1606.95 207.51 1607.52 208.981 1608.78 209.54C1610.04 210.101 1611.51 209.535 1612.07 208.279C1613.62 204.794 1616.05 202.669 1619.5 201.782C1624.18 200.579 1630.36 201.906 1636.12 204.415C1636.11 204.6 1636.12 204.789 1636.15 204.98C1636.72 207.992 1629.9 212.994 1625.02 214.895C1619.42 217.075 1612.39 217.762 1605.21 216.832C1595.6 215.585 1585.04 210.412 1583.38 199.687C1584.25 199.346 1585.12 198.984 1585.96 198.58C1593.99 194.739 1600.07 188.176 1602.64 180.571C1604.86 173.994 1604.31 167.166 1601.05 160.824C1598.32 155.507 1593.55 152.113 1587.96 151.512C1582.79 150.959 1577.77 152.835 1574.82 156.407C1573.95 157.469 1574.1 159.038 1575.16 159.911C1576.23 160.785 1577.8 160.633 1578.67 159.571C1580.54 157.311 1583.98 156.082 1587.43 156.462C1589.71 156.707 1593.94 157.897 1596.62 163.098C1599.25 168.214 1599.7 173.707 1597.92 178.981C1595.78 185.319 1590.63 190.827 1583.81 194.089C1573.59 198.977 1561.12 198.547 1549.6 192.905C1542.87 189.608 1537.63 184.071 1532.07 178.211C1528.61 174.56 1525.03 170.784 1521.08 167.631C1516.94 164.338 1510.55 159.927 1502.77 159.658C1495.17 159.37 1489.37 163.299 1483.73 167.075C1478.39 170.661 1473.34 174.05 1467.15 173.563C1465.57 173.443 1463.99 173.061 1462.35 172.614Z"/>
</mask>
<path d="M1462.35 172.614C1468.94 169.879 1472.56 165.572 1474.88 162.162C1476.46 159.835 1477.52 157.333 1478.54 154.912C1480.43 150.417 1482.07 146.533 1486.6 144.72C1494.96 141.371 1505.79 144.368 1512.96 146.353C1524.52 149.551 1533.93 148.056 1539.82 142.187C1540.71 143.303 1541.63 144.388 1542.55 145.456C1546.08 149.551 1549.4 153.419 1549.94 158.527C1550.02 159.293 1549.78 160.072 1549.39 160.337C1548.26 161.11 1547.96 162.657 1548.73 163.794C1549.22 164.502 1550 164.883 1550.8 164.883C1551.28 164.883 1551.77 164.743 1552.2 164.452C1554.14 163.135 1555.18 160.666 1554.9 158.009C1554.2 151.354 1550.2 146.707 1546.34 142.212C1543.42 138.827 1540.67 135.629 1539.45 131.742C1537.69 126.193 1539.14 119.954 1543.41 114.625C1551.53 104.476 1568.52 98.5242 1580.85 105.835C1583.56 107.438 1587.26 110.332 1589.18 113.385C1593.48 122.659 1601.14 127.764 1611.39 128.142C1612.27 128.172 1613.26 128.066 1614.2 127.961C1615.19 127.851 1617.02 127.648 1617.54 127.911C1617.53 127.938 1617.57 128.101 1617.56 128.418C1617.54 130.167 1617.4 131.937 1617.28 133.649C1616.84 139.438 1616.39 145.423 1619.86 151.39C1629.18 167.376 1649.07 173.742 1663.28 174.336C1663.96 174.365 1664.66 174.379 1665.36 174.379C1682.7 174.38 1704.14 165.618 1713.21 148.171C1713.85 146.952 1713.37 145.448 1712.15 144.815C1710.93 144.184 1709.42 144.656 1708.79 145.877C1700.3 162.182 1679.58 170.02 1663.48 169.362C1650.53 168.821 1632.47 163.134 1624.17 148.888C1621.48 144.256 1621.83 139.514 1622.25 134.021C1622.38 132.238 1622.52 130.394 1622.55 128.5C1622.58 126.68 1622.03 125.244 1620.91 124.23C1618.93 122.429 1616 122.752 1613.65 123.014C1612.85 123.103 1612.09 123.18 1611.58 123.167C1603.45 122.867 1597.57 119.051 1594.03 111.901C1593.98 111.727 1593.91 111.555 1593.82 111.389C1593.73 111.234 1593.63 111.084 1593.54 110.931C1593.52 110.896 1593.5 110.867 1593.48 110.83C1587.12 96.3792 1591.68 74.6697 1600.01 64.9142C1607.68 55.9308 1623.85 49.0796 1635.69 53.2085C1640.13 54.7505 1643.73 51.7797 1646.63 49.391C1647.48 48.683 1648.29 48.0135 1649.05 47.5166C1654.48 43.9312 1662.96 42.899 1670.62 44.8853C1676.41 46.3841 1684.38 50.2168 1689.48 59.9431C1684.48 69.1527 1685.28 80.6193 1687.98 89.0684C1687.94 89.2877 1687.92 89.5117 1687.94 89.7438C1689.01 100.114 1680.24 112.105 1669.17 115.407C1658.08 118.712 1642.66 114.788 1638.25 103.871C1636.56 99.68 1636.64 95.2467 1638.47 91.0466C1640.9 85.4982 1646.13 80.7347 1652.48 78.3029C1655.68 77.0793 1662.08 75.8232 1665.64 77.6649C1666.77 78.2504 1667.44 79.0808 1667.74 80.2799C1668.01 81.3261 1667.87 82.272 1667.31 83.1748C1666.28 84.8485 1663.87 86.3275 1661.16 86.9433C1659.81 87.2477 1658.97 88.582 1659.28 89.9222C1659.58 91.2612 1660.92 92.1045 1662.26 91.7977C1665.41 91.0827 1669.51 89.1268 1671.57 85.7769C1672.82 83.73 1673.17 81.4077 1672.58 79.0622C1671.93 76.4927 1670.33 74.483 1667.94 73.2467C1662.5 70.4299 1654.28 72.2821 1650.7 73.6549C1643.13 76.5533 1636.85 82.3117 1633.9 89.0579C1631.52 94.5095 1631.43 100.274 1633.63 105.73C1637.87 116.251 1649.64 121.535 1660.97 121.535C1664.28 121.535 1667.56 121.083 1670.6 120.177C1680.94 117.094 1689.36 107.954 1692.07 98.0751C1698.89 109.454 1711.08 118.857 1725.08 123.06C1736.18 126.393 1756.79 126.975 1764.82 114.339C1766.42 111.815 1766.7 109.156 1766.95 106.81C1767.13 105.161 1767.29 103.603 1767.9 102.336C1768.59 100.912 1769.05 100.823 1771.42 100.589C1771.9 100.54 1772.42 100.489 1772.96 100.417C1780.4 99.4246 1786.35 94.8326 1789.29 87.8169C1792.65 79.7982 1791.45 70.1512 1786.24 63.2404C1780.74 55.9472 1771.27 51.908 1760.91 52.4445C1750.89 52.9601 1742.19 57.762 1737.65 65.2909C1736.94 66.4678 1737.32 67.998 1738.5 68.706C1739.68 69.414 1741.21 69.0373 1741.92 67.8581C1745.61 61.7486 1752.8 57.8436 1761.17 57.4144C1769.75 56.9794 1777.83 60.3525 1782.26 66.2321C1786.42 71.7572 1787.38 79.4751 1784.69 85.8947C1782.41 91.3148 1778.02 94.7206 1772.3 95.4823C1771.82 95.5464 1771.36 95.5919 1770.92 95.6351C1768.3 95.894 1765.33 96.1891 1763.41 100.182C1762.42 102.224 1762.21 104.288 1761.99 106.285C1761.77 108.348 1761.59 110.131 1760.61 111.671C1754.4 121.437 1736.93 121.421 1726.51 118.292C1710.96 113.622 1697.86 102.037 1693.13 88.7792C1690.43 81.1815 1689.22 69.3078 1694.73 60.8529C1698.51 55.0572 1706.28 45.6668 1715.89 47.8841L1715.9 47.8852C1717.24 48.1966 1718.58 47.3592 1718.89 46.0214C1719.05 45.3332 1718.91 44.6451 1718.55 44.0957C1718.37 41.7047 1719.8 32.4985 1720.25 30.9158C1725.86 12.3262 1746.49 3.02681 1763.92 0.526122C1783.74 -2.31631 1804.98 6.52359 1818.01 23.051C1819.66 25.1376 1821.17 27.3502 1822.51 29.6246C1826.84 36.975 1829.24 44.9927 1829.45 52.8085C1829.65 60.1729 1827.38 65.5743 1824.76 71.8284C1824.21 73.1242 1823.66 74.4504 1823.1 75.8325C1822.81 76.4787 1822.55 77.1458 1822.33 77.8317C1821.92 79.117 1822.61 80.4945 1823.89 80.9354C1825.16 81.3786 1826.56 80.7243 1827.04 79.4622C1827.26 78.8919 1827.48 78.3297 1827.7 77.7734C1829.26 74.4585 1832.24 71.91 1836.58 70.185C1846.47 66.2566 1860.67 67.7951 1867.72 71.6977C1880.16 78.577 1889.81 92.9582 1890.68 105.892C1891.02 110.916 1889.15 113.597 1886.58 117.306C1885.54 118.793 1884.48 120.333 1883.46 122.165C1883.46 122.169 1883.46 122.172 1883.45 122.176C1882.79 123.378 1883.22 124.893 1884.43 125.558C1885.31 126.043 1886.35 125.944 1887.11 125.387C1889.08 125.417 1895.13 127.675 1896.39 128.443C1909.99 136.697 1919.92 152.842 1920 166.83C1920.06 176.638 1915.41 184.742 1906.55 190.266C1898.44 195.328 1888.83 198.026 1879.51 197.861C1875.47 197.79 1871.54 196.944 1867.38 196.05C1861.76 194.841 1855.96 193.596 1849.85 194.396C1840.61 195.609 1832.01 199.142 1823.69 202.558C1815.8 205.802 1807.64 209.154 1799.14 210.374C1794.12 211.096 1776.94 212.731 1766.62 203.495C1752.07 190.471 1749.62 167.171 1761.26 152.611C1769.04 142.883 1781.24 136.186 1793.92 134.693C1803.47 133.565 1812.84 135.926 1818.96 141.002C1826.52 147.278 1827.95 158.121 1822.14 165.171C1820.33 167.361 1817.96 169.009 1815.45 169.81C1810.36 171.435 1804.33 169.812 1799.49 168.508C1798.17 168.151 1796.79 168.934 1796.43 170.263C1796.07 171.59 1796.86 172.957 1798.19 173.315C1803.66 174.789 1810.48 176.624 1816.97 174.552C1820.43 173.446 1823.55 171.296 1825.99 168.335C1833.54 159.175 1831.81 145.197 1822.15 137.175C1815 131.244 1804.23 128.464 1793.33 129.75C1779.38 131.393 1765.94 138.78 1757.36 149.508C1747.83 161.427 1746.39 177.878 1752.29 191.786C1741.34 188.806 1727.41 194.114 1720.91 200.699C1710.35 211.386 1698.64 221.844 1681.91 222.119C1681.76 222.123 1681.6 222.124 1681.45 222.124C1669.86 222.124 1660.4 214.913 1651.25 207.939C1650.36 207.266 1649.49 206.597 1648.61 205.936C1642.44 201.289 1629.11 194.167 1618.25 196.963C1613.38 198.218 1609.67 201.431 1607.51 206.254C1606.95 207.51 1607.52 208.981 1608.78 209.54C1610.04 210.101 1611.51 209.535 1612.07 208.279C1613.62 204.794 1616.05 202.669 1619.5 201.782C1624.18 200.579 1630.36 201.906 1636.12 204.415C1636.11 204.6 1636.12 204.789 1636.15 204.98C1636.72 207.992 1629.9 212.994 1625.02 214.895C1619.42 217.075 1612.39 217.762 1605.21 216.832C1595.6 215.585 1585.04 210.412 1583.38 199.687C1584.25 199.346 1585.12 198.984 1585.96 198.58C1593.99 194.739 1600.07 188.176 1602.64 180.571C1604.86 173.994 1604.31 167.166 1601.05 160.824C1598.32 155.507 1593.55 152.113 1587.96 151.512C1582.79 150.959 1577.77 152.835 1574.82 156.407C1573.95 157.469 1574.1 159.038 1575.16 159.911C1576.23 160.785 1577.8 160.633 1578.67 159.571C1580.54 157.311 1583.98 156.082 1587.43 156.462C1589.71 156.707 1593.94 157.897 1596.62 163.098C1599.25 168.214 1599.7 173.707 1597.92 178.981C1595.78 185.319 1590.63 190.827 1583.81 194.089C1573.59 198.977 1561.12 198.547 1549.6 192.905C1542.87 189.608 1537.63 184.071 1532.07 178.211C1528.61 174.56 1525.03 170.784 1521.08 167.631C1516.94 164.338 1510.55 159.927 1502.77 159.658C1495.17 159.37 1489.37 163.299 1483.73 167.075C1478.39 170.661 1473.34 174.05 1467.15 173.563C1465.57 173.443 1463.99 173.061 1462.35 172.614Z" fill="#28292F" stroke="#FBD043" stroke-width="2" mask="url(#path-4-inside-4_51_21)"/>
<mask id="path-5-inside-5_51_21" fill="white">
<path d="M1276.13 138.178C1278.78 134.006 1281.39 129.609 1283.92 125.357C1293.74 108.822 1303.91 91.7256 1319.74 80.9569C1330.99 73.3061 1346.2 70.3913 1357.58 73.6974C1365.49 75.9955 1371.15 80.9709 1374.4 88.4885C1376.65 93.6949 1376.77 98.8762 1374.74 103.472C1373.8 105.595 1372.41 107.493 1370.68 109.138C1372.51 102.546 1367.73 95.5869 1361.75 91.9297C1352.19 86.0805 1339.49 86.6878 1330.16 93.4453C1324.75 97.3606 1318.97 105.836 1318.66 113.243C1318.51 116.77 1319.6 119.848 1321.81 122.229C1317.49 123.245 1313.67 125.534 1310.15 127.957C1289.61 142.087 1273.23 162.311 1258.77 180.155C1242.67 200.027 1221.91 215.182 1200.3 222.827C1196.64 224.122 1192.89 225.168 1189.08 225.988C1195.32 223.788 1201.4 220.872 1207.26 217.229C1238.2 197.978 1259.23 164.821 1276.13 138.178Z"/>
</mask>
<path d="M1276.13 138.178C1278.78 134.006 1281.39 129.609 1283.92 125.357C1293.74 108.822 1303.91 91.7256 1319.74 80.9569C1330.99 73.3061 1346.2 70.3913 1357.58 73.6974C1365.49 75.9955 1371.15 80.9709 1374.4 88.4885C1376.65 93.6949 1376.77 98.8762 1374.74 103.472C1373.8 105.595 1372.41 107.493 1370.68 109.138C1372.51 102.546 1367.73 95.5869 1361.75 91.9297C1352.19 86.0805 1339.49 86.6878 1330.16 93.4453C1324.75 97.3606 1318.97 105.836 1318.66 113.243C1318.51 116.77 1319.6 119.848 1321.81 122.229C1317.49 123.245 1313.67 125.534 1310.15 127.957C1289.61 142.087 1273.23 162.311 1258.77 180.155C1242.67 200.027 1221.91 215.182 1200.3 222.827C1196.64 224.122 1192.89 225.168 1189.08 225.988C1195.32 223.788 1201.4 220.872 1207.26 217.229C1238.2 197.978 1259.23 164.821 1276.13 138.178Z" fill="#28292F" stroke="#FBD043" stroke-width="2" mask="url(#path-5-inside-5_51_21)"/>
<mask id="path-6-inside-6_51_21" fill="white">
<path d="M1105.31 198.285C1103.91 196.543 1102.51 194.757 1101.11 192.957C1095.31 185.537 1089.32 177.865 1081.75 171.979C1070.25 163.045 1055.38 161.828 1040.65 168.21C1047.51 162.175 1057 157.28 1066.82 157.48C1075.03 157.631 1084.39 160.6 1092.5 165.623C1099.17 169.758 1103.82 175.572 1108.75 181.725C1111.65 185.348 1114.64 189.095 1118.1 192.492C1124.5 198.774 1131.29 203.195 1138.3 205.633C1145.21 208.036 1152.08 209.236 1158.87 209.236C1174.04 209.238 1188.88 203.266 1203.21 191.369C1224.32 173.841 1237.66 148.857 1243.73 135.526C1244.87 133.003 1246.01 130.476 1247.15 127.949C1249 123.846 1250.85 119.745 1252.74 115.66C1258.2 103.855 1264.87 90.0935 1273.01 77.5353C1273.33 77.0518 1273.77 76.5758 1274.25 76.0718C1274.77 75.5157 1275.36 74.8841 1275.87 74.1361C1281.53 65.7615 1288.7 60.6855 1297.01 54.8083L1297.3 54.6024C1305.95 48.4822 1314.51 42.9106 1324.16 41.9734C1332.26 41.1853 1340.06 42.958 1348.34 44.8295C1353.75 46.0554 1359.35 47.3224 1364.98 47.7863C1369.29 48.1403 1372.71 46.5073 1376 44.9264C1378.25 43.8514 1380.36 42.8351 1382.67 42.5016C1387.12 41.8597 1391.76 41.9017 1396.46 42.6283C1406.79 44.2212 1415.31 48.8044 1420.46 55.5302C1426.13 62.9286 1425.93 71.2781 1425.73 80.1185C1425.61 85.2886 1425.48 90.6347 1426.55 95.9548C1427.18 99.0988 1428.58 101.79 1429.93 104.393C1431.34 107.112 1432.68 109.68 1433.04 112.555C1433.64 117.466 1432.53 123.157 1429.97 128.169C1426.11 135.743 1418.51 141.498 1410.13 143.189C1405.68 144.083 1401.2 143.347 1396.45 142.567C1392.73 141.957 1388.89 141.326 1385 141.515C1379.14 141.797 1375.41 144.921 1371.79 147.941C1369.47 149.882 1367.28 151.715 1364.55 152.811C1359.22 154.944 1351.35 154.417 1343.49 151.404C1338.4 149.45 1338.21 146.289 1337.9 141.052C1337.82 139.796 1337.75 138.498 1337.59 137.141C1336.65 129.317 1332.58 125.969 1327.86 122.094C1327.09 121.459 1326.29 120.801 1325.47 120.096C1323.51 118.406 1322.61 116.22 1322.73 113.412C1322.98 107.513 1328.01 100.031 1332.55 96.7438C1340.56 90.9403 1351.45 90.4009 1359.63 95.4043C1363.67 97.8775 1368.5 103.63 1366.56 108.67C1364.97 112.817 1359.48 115.31 1355.04 113.902C1353.97 113.56 1352.83 114.154 1352.49 115.228C1352.14 116.3 1352.74 117.446 1353.81 117.787C1356.53 118.651 1359.48 118.507 1362.15 117.603C1362.66 117.924 1363.29 118.027 1363.9 117.816C1370.72 115.467 1375.89 110.956 1378.47 105.114C1380.93 99.5329 1380.81 93.053 1378.14 86.8685C1374.44 78.3057 1367.72 72.3969 1358.72 69.7811C1346.23 66.1555 1329.65 69.2883 1317.45 77.5837C1300.86 88.862 1290.47 106.355 1280.41 123.273C1277.9 127.5 1275.3 131.871 1272.69 135.993C1256.01 162.286 1235.25 195.007 1205.1 213.766C1188.08 224.356 1169.08 228.609 1149.99 226.167C1147.64 225.685 1145.3 225.115 1142.99 224.453C1128.67 220.345 1115.99 211.54 1105.31 198.285Z"/>
</mask>
<path d="M1105.31 198.285C1103.91 196.543 1102.51 194.757 1101.11 192.957C1095.31 185.537 1089.32 177.865 1081.75 171.979C1070.25 163.045 1055.38 161.828 1040.65 168.21C1047.51 162.175 1057 157.28 1066.82 157.48C1075.03 157.631 1084.39 160.6 1092.5 165.623C1099.17 169.758 1103.82 175.572 1108.75 181.725C1111.65 185.348 1114.64 189.095 1118.1 192.492C1124.5 198.774 1131.29 203.195 1138.3 205.633C1145.21 208.036 1152.08 209.236 1158.87 209.236C1174.04 209.238 1188.88 203.266 1203.21 191.369C1224.32 173.841 1237.66 148.857 1243.73 135.526C1244.87 133.003 1246.01 130.476 1247.15 127.949C1249 123.846 1250.85 119.745 1252.74 115.66C1258.2 103.855 1264.87 90.0935 1273.01 77.5353C1273.33 77.0518 1273.77 76.5758 1274.25 76.0718C1274.77 75.5157 1275.36 74.8841 1275.87 74.1361C1281.53 65.7615 1288.7 60.6855 1297.01 54.8083L1297.3 54.6024C1305.95 48.4822 1314.51 42.9106 1324.16 41.9734C1332.26 41.1853 1340.06 42.958 1348.34 44.8295C1353.75 46.0554 1359.35 47.3224 1364.98 47.7863C1369.29 48.1403 1372.71 46.5073 1376 44.9264C1378.25 43.8514 1380.36 42.8351 1382.67 42.5016C1387.12 41.8597 1391.76 41.9017 1396.46 42.6283C1406.79 44.2212 1415.31 48.8044 1420.46 55.5302C1426.13 62.9286 1425.93 71.2781 1425.73 80.1185C1425.61 85.2886 1425.48 90.6347 1426.55 95.9548C1427.18 99.0988 1428.58 101.79 1429.93 104.393C1431.34 107.112 1432.68 109.68 1433.04 112.555C1433.64 117.466 1432.53 123.157 1429.97 128.169C1426.11 135.743 1418.51 141.498 1410.13 143.189C1405.68 144.083 1401.2 143.347 1396.45 142.567C1392.73 141.957 1388.89 141.326 1385 141.515C1379.14 141.797 1375.41 144.921 1371.79 147.941C1369.47 149.882 1367.28 151.715 1364.55 152.811C1359.22 154.944 1351.35 154.417 1343.49 151.404C1338.4 149.45 1338.21 146.289 1337.9 141.052C1337.82 139.796 1337.75 138.498 1337.59 137.141C1336.65 129.317 1332.58 125.969 1327.86 122.094C1327.09 121.459 1326.29 120.801 1325.47 120.096C1323.51 118.406 1322.61 116.22 1322.73 113.412C1322.98 107.513 1328.01 100.031 1332.55 96.7438C1340.56 90.9403 1351.45 90.4009 1359.63 95.4043C1363.67 97.8775 1368.5 103.63 1366.56 108.67C1364.97 112.817 1359.48 115.31 1355.04 113.902C1353.97 113.56 1352.83 114.154 1352.49 115.228C1352.14 116.3 1352.74 117.446 1353.81 117.787C1356.53 118.651 1359.48 118.507 1362.15 117.603C1362.66 117.924 1363.29 118.027 1363.9 117.816C1370.72 115.467 1375.89 110.956 1378.47 105.114C1380.93 99.5329 1380.81 93.053 1378.14 86.8685C1374.44 78.3057 1367.72 72.3969 1358.72 69.7811C1346.23 66.1555 1329.65 69.2883 1317.45 77.5837C1300.86 88.862 1290.47 106.355 1280.41 123.273C1277.9 127.5 1275.3 131.871 1272.69 135.993C1256.01 162.286 1235.25 195.007 1205.1 213.766C1188.08 224.356 1169.08 228.609 1149.99 226.167C1147.64 225.685 1145.3 225.115 1142.99 224.453C1128.67 220.345 1115.99 211.54 1105.31 198.285Z" fill="#28292F" stroke="#FBD043" stroke-width="2" mask="url(#path-6-inside-6_51_21)"/>
<mask id="path-7-inside-7_51_21" fill="white">
<path d="M1169.47 80.1791C1172.06 79.1041 1174.75 77.9918 1177.75 74.7826C1179.76 72.6428 1180.73 70.3093 1181.66 68.0522C1183.46 63.7177 1185.01 59.9747 1194.47 58.3119C1210.6 55.4763 1226.19 69.0387 1230.11 82.9858C1231.51 87.9557 1234.8 91.5328 1237.99 94.9935C1240.47 97.6866 1242.81 100.23 1244.3 103.37C1247.88 110.929 1247.78 116.501 1243.9 123.928C1243.63 124.441 1243.61 125.013 1243.78 125.52C1243.67 125.772 1243.55 126.022 1243.44 126.272C1242.3 128.795 1241.16 131.317 1240.02 133.836C1234.09 146.851 1221.09 171.224 1200.61 188.233C1181.03 204.487 1160.52 209.044 1139.64 201.784C1133.21 199.545 1126.92 195.441 1120.96 189.584C1117.67 186.358 1114.75 182.708 1111.93 179.178C1107 173.026 1101.91 166.664 1094.64 162.159C1086.93 157.38 1078.12 154.342 1070.01 153.59C1078.02 151.143 1086.27 150.692 1094.32 152.214C1094.46 152.289 1094.61 152.354 1094.78 152.394C1110.33 156.126 1115.42 161.728 1125.56 172.888C1127.94 175.506 1130.63 178.474 1133.77 181.754C1142.68 191.05 1152.23 195.687 1162.95 195.93C1163.25 195.937 1163.55 195.941 1163.84 195.941C1173.6 195.942 1183.22 192.29 1191.01 185.603C1205.95 172.785 1214.2 150.766 1212.04 129.508C1212.02 129.348 1211.98 129.196 1211.93 129.05C1215.63 125.576 1218.21 120.794 1218.78 116.002C1219.36 111.146 1217.9 106.802 1214.58 103.437C1209.38 98.1691 1199.01 96.5864 1191.48 99.9139C1186.05 102.309 1183.11 106.935 1183.41 112.606C1183.47 113.73 1184.4 114.589 1185.55 114.535C1186.68 114.476 1187.54 113.516 1187.48 112.393C1187.22 107.337 1190.4 104.845 1193.12 103.643C1199.03 101.034 1207.7 102.276 1211.68 106.302C1214.74 109.399 1215.03 113.026 1214.73 115.524C1214.16 120.373 1210.86 125.444 1206.51 128.143C1203.77 129.849 1201.03 129.817 1197.87 129.769C1195.24 129.736 1192.51 129.698 1189.61 130.695C1187.11 131.557 1185.09 132.682 1183.13 133.772C1179.78 135.634 1176.92 137.239 1172.39 136.886C1167.17 136.473 1160.7 133.382 1158.42 128.277C1157.19 125.521 1158.22 122.549 1159.3 119.403C1160.51 115.911 1161.87 111.955 1159.66 108.26C1156.16 102.428 1155.16 95.2487 1157.34 91.5598C1162.31 83.147 1165.79 81.705 1169.47 80.1791Z"/>
</mask>
<path d="M1169.47 80.1791C1172.06 79.1041 1174.75 77.9918 1177.75 74.7826C1179.76 72.6428 1180.73 70.3093 1181.66 68.0522C1183.46 63.7177 1185.01 59.9747 1194.47 58.3119C1210.6 55.4763 1226.19 69.0387 1230.11 82.9858C1231.51 87.9557 1234.8 91.5328 1237.99 94.9935C1240.47 97.6866 1242.81 100.23 1244.3 103.37C1247.88 110.929 1247.78 116.501 1243.9 123.928C1243.63 124.441 1243.61 125.013 1243.78 125.52C1243.67 125.772 1243.55 126.022 1243.44 126.272C1242.3 128.795 1241.16 131.317 1240.02 133.836C1234.09 146.851 1221.09 171.224 1200.61 188.233C1181.03 204.487 1160.52 209.044 1139.64 201.784C1133.21 199.545 1126.92 195.441 1120.96 189.584C1117.67 186.358 1114.75 182.708 1111.93 179.178C1107 173.026 1101.91 166.664 1094.64 162.159C1086.93 157.38 1078.12 154.342 1070.01 153.59C1078.02 151.143 1086.27 150.692 1094.32 152.214C1094.46 152.289 1094.61 152.354 1094.78 152.394C1110.33 156.126 1115.42 161.728 1125.56 172.888C1127.94 175.506 1130.63 178.474 1133.77 181.754C1142.68 191.05 1152.23 195.687 1162.95 195.93C1163.25 195.937 1163.55 195.941 1163.84 195.941C1173.6 195.942 1183.22 192.29 1191.01 185.603C1205.95 172.785 1214.2 150.766 1212.04 129.508C1212.02 129.348 1211.98 129.196 1211.93 129.05C1215.63 125.576 1218.21 120.794 1218.78 116.002C1219.36 111.146 1217.9 106.802 1214.58 103.437C1209.38 98.1691 1199.01 96.5864 1191.48 99.9139C1186.05 102.309 1183.11 106.935 1183.41 112.606C1183.47 113.73 1184.4 114.589 1185.55 114.535C1186.68 114.476 1187.54 113.516 1187.48 112.393C1187.22 107.337 1190.4 104.845 1193.12 103.643C1199.03 101.034 1207.7 102.276 1211.68 106.302C1214.74 109.399 1215.03 113.026 1214.73 115.524C1214.16 120.373 1210.86 125.444 1206.51 128.143C1203.77 129.849 1201.03 129.817 1197.87 129.769C1195.24 129.736 1192.51 129.698 1189.61 130.695C1187.11 131.557 1185.09 132.682 1183.13 133.772C1179.78 135.634 1176.92 137.239 1172.39 136.886C1167.17 136.473 1160.7 133.382 1158.42 128.277C1157.19 125.521 1158.22 122.549 1159.3 119.403C1160.51 115.911 1161.87 111.955 1159.66 108.26C1156.16 102.428 1155.16 95.2487 1157.34 91.5598C1162.31 83.147 1165.79 81.705 1169.47 80.1791Z" fill="#28292F" stroke="#FBD043" stroke-width="2" mask="url(#path-7-inside-7_51_21)"/>
<mask id="path-8-inside-8_51_21" fill="white">
<path d="M1195.67 133.846C1196.38 133.833 1197.09 133.834 1197.82 133.844C1200.98 133.882 1204.54 133.908 1208.12 131.899C1209.42 150.989 1201.64 171.112 1188.36 182.511C1181.09 188.744 1172.11 192.053 1163.05 191.856C1153.45 191.638 1144.84 187.411 1136.72 178.933C1136.68 178.896 1136.65 178.862 1136.61 178.824C1143.01 183.483 1150.14 186.968 1159.09 186.969C1159.62 186.969 1160.15 186.956 1160.7 186.932C1171.51 186.435 1181.15 181.282 1187.84 172.42C1195.8 161.876 1198.8 147.106 1195.68 133.874C1195.68 133.863 1195.67 133.856 1195.67 133.846Z"/>
</mask>
<path d="M1195.67 133.846C1196.38 133.833 1197.09 133.834 1197.82 133.844C1200.98 133.882 1204.54 133.908 1208.12 131.899C1209.42 150.989 1201.64 171.112 1188.36 182.511C1181.09 188.744 1172.11 192.053 1163.05 191.856C1153.45 191.638 1144.84 187.411 1136.72 178.933C1136.68 178.896 1136.65 178.862 1136.61 178.824C1143.01 183.483 1150.14 186.968 1159.09 186.969C1159.62 186.969 1160.15 186.956 1160.7 186.932C1171.51 186.435 1181.15 181.282 1187.84 172.42C1195.8 161.876 1198.8 147.106 1195.68 133.874C1195.68 133.863 1195.67 133.856 1195.67 133.846Z" fill="#28292F" stroke="#FBD043" stroke-width="2" mask="url(#path-8-inside-8_51_21)"/>
<mask id="path-9-inside-9_51_21" fill="white">
<path d="M580.71 74.3046C581.393 71.514 581.044 68.2467 579.753 65.3405C575.799 56.4304 567.631 55.5796 558.173 54.5934C552.643 54.0176 546.925 53.422 541.882 51.0299C537.689 49.0409 533.908 45.7874 530.25 42.6408C523.986 37.2485 518.069 32.158 510.466 33.1645C507.395 33.5731 504.794 34.8942 502.042 36.2927C500.331 37.1619 498.564 38.0606 496.615 38.7705C489.288 41.445 480.988 41.2321 470.496 38.0998L468.681 37.5512C464.155 36.1748 459.88 34.8758 455.366 34.8366C455.303 34.8362 455.239 34.8362 455.176 34.8362C448.889 34.8362 442.754 37.5162 438.319 42.2078C435.22 45.4861 432.515 48.1564 428.305 50.1975C425.712 51.4551 422.939 51.9355 420.257 52.3998C418.677 52.6739 417.184 52.9319 415.776 53.3368C411.008 54.7053 406.599 59.1975 404.268 65.0596C403.462 67.0868 402.961 69.121 402.762 71.07C403.073 71.6785 403.015 72.3846 402.666 72.9249C402.663 75.4999 403.228 77.8602 404.356 79.7714C407.12 84.4515 409.834 88.5162 415.059 90.8525C417.114 91.7706 420.022 92.216 423.101 92.6882C427.711 93.3943 432.479 94.1244 435.601 96.6404C442.141 101.909 448.32 106.885 456.924 107.599C462.483 108.064 468.019 105.817 473.365 103.647C475.71 102.695 478.134 101.71 480.548 100.957C487.49 98.793 501.518 100.183 507.752 102.052C515.816 104.473 526.508 104.243 530.114 95.6431C532.983 88.7999 530.158 79.8193 523.682 75.1973C521.9 73.9255 519.908 72.9346 517.8 71.8848C514.502 70.2445 511.092 68.548 508.407 65.6533C507.523 64.6998 506.719 63.6892 505.943 62.7112C504.539 60.9438 503.213 59.2739 501.52 58.0445C496.47 54.3783 489.175 53.2741 481.514 55.0163C479.067 55.5718 477.131 57.0177 475.082 58.5489C472.041 60.8226 468.594 63.4017 463.314 62.6417C459.869 62.1465 456.577 60.8548 453.394 59.6056C452.692 59.3301 451.996 59.0561 451.304 58.794C449.179 57.9897 446.172 58.4793 443.649 60.046C441.496 61.3823 440.156 63.2225 439.969 65.0959C439.774 67.0583 440.724 69.2514 442.574 71.1123C443.236 71.7789 444.138 72.2262 445.092 72.7002C446.842 73.568 449.02 74.6482 450.005 77.4309C450.642 79.2315 450.621 80.993 450.601 82.6974C450.584 84.0576 450.569 85.3433 450.911 86.4884C451.571 88.699 452.993 90.6618 454.917 92.0133C458.54 94.5597 462.489 95.9329 466.337 95.9854C470.254 96.0702 473.929 94.5943 476.901 91.807C477.2 91.5264 477.494 91.2422 477.787 90.9598C480.131 88.6972 482.79 86.1287 487.105 86.3774C488.637 86.4617 491.309 86.3604 491.762 84.6763C492.335 82.5495 490.007 78.4088 486.471 76.611C481.987 74.3294 473.924 73.2368 470.044 77.9533C469.649 78.4319 469.471 79.0293 469.599 79.4416C469.804 80.0952 471.901 80.3228 472.796 80.42L473.125 80.4559C474.146 80.5715 474.879 81.4942 474.763 82.515C474.648 83.5367 473.726 84.2686 472.706 84.1562L472.395 84.1217C470.503 83.9162 466.98 83.5339 466.05 80.5517C465.547 78.9404 465.977 77.0375 467.173 75.5856C472.057 69.6461 481.629 69.9713 488.156 73.2912C492.534 75.5188 496.566 81.1404 495.353 85.6455C494.865 87.4581 493.11 90.4453 486.895 90.0948C484.313 89.9552 482.744 91.3477 480.368 93.6403C480.063 93.9346 479.755 94.2313 479.443 94.5238C475.756 97.9837 471.218 99.7903 466.286 99.7092C461.688 99.6466 457.016 98.0394 452.779 95.0609C450.176 93.2308 448.246 90.5651 447.346 87.5548C446.843 85.8656 446.862 84.2327 446.882 82.6527C446.899 81.2114 446.916 79.8506 446.499 78.6746C446.04 77.3779 445.087 76.8528 443.442 76.0366C442.312 75.4764 441.033 74.8421 439.937 73.7384C437.3 71.0856 435.963 67.8013 436.269 64.7279C436.57 61.6937 438.546 58.834 441.688 56.8823C445.213 54.6952 449.402 54.0918 452.619 55.312C453.325 55.5787 454.035 55.8578 454.752 56.1393C457.737 57.3107 460.824 58.5226 463.841 58.9561C467.601 59.4974 470.035 57.6741 472.857 55.5653C475.021 53.9485 477.473 52.1161 480.69 51.3851C489.4 49.4085 497.789 50.7356 503.704 55.031C505.806 56.5594 507.355 58.5088 508.853 60.3942C509.62 61.3597 510.344 62.2709 511.131 63.1198C513.355 65.5165 516.317 66.991 519.454 68.5512C521.599 69.619 523.819 70.7231 525.841 72.1667C533.674 77.757 537.057 88.7023 533.542 97.085C530.693 103.884 521.948 110.198 506.683 105.62C500.818 103.86 487.723 102.619 481.654 104.513C479.389 105.22 477.142 106.132 474.763 107.098C469.014 109.433 463.079 111.845 456.616 111.312C446.876 110.503 439.958 104.931 433.268 99.542C430.926 97.6543 426.661 97.0011 422.537 96.3696C419.203 95.8587 416.054 95.3764 413.543 94.2534C407.324 91.4735 404.134 86.7141 401.155 81.6679C400.063 79.8189 399.376 77.67 399.099 75.3502C387.923 83.0843 386.866 93.9973 388.09 102.08C389.248 109.726 394.397 117.115 401.53 121.366C408.117 125.293 415.21 124.636 422.72 123.938L424.346 123.789C428.778 123.392 433.357 123.04 437.978 123.04C442.258 123.04 446.575 123.342 450.851 124.191C457.813 125.573 463.671 129.323 469.336 132.95C470.22 133.515 471.101 134.08 471.985 134.635C480.534 139.996 487.738 141.838 494.646 140.442C499.448 139.471 502.442 136.74 505.91 133.579C506.976 132.608 508.076 131.605 509.272 130.616C514.746 126.088 519.625 123.388 524.628 122.12C530.427 120.649 537.158 120.174 544.094 120.745C545.068 120.825 546.021 120.925 546.958 121.023C551.731 121.525 555.856 121.958 560.069 119.301C561.76 118.235 563.021 117.002 563.815 115.635C565.415 112.883 565.766 108.531 564.805 103.38L564.521 101.894C563.364 95.9159 562.27 90.2689 568.219 85.0388C569.783 83.6643 571.622 82.596 573.402 81.5624C576.863 79.5508 579.853 77.8142 580.71 74.3046Z"/>
</mask>
<path d="M580.71 74.3046C581.393 71.514 581.044 68.2467 579.753 65.3405C575.799 56.4304 567.631 55.5796 558.173 54.5934C552.643 54.0176 546.925 53.422 541.882 51.0299C537.689 49.0409 533.908 45.7874 530.25 42.6408C523.986 37.2485 518.069 32.158 510.466 33.1645C507.395 33.5731 504.794 34.8942 502.042 36.2927C500.331 37.1619 498.564 38.0606 496.615 38.7705C489.288 41.445 480.988 41.2321 470.496 38.0998L468.681 37.5512C464.155 36.1748 459.88 34.8758 455.366 34.8366C455.303 34.8362 455.239 34.8362 455.176 34.8362C448.889 34.8362 442.754 37.5162 438.319 42.2078C435.22 45.4861 432.515 48.1564 428.305 50.1975C425.712 51.4551 422.939 51.9355 420.257 52.3998C418.677 52.6739 417.184 52.9319 415.776 53.3368C411.008 54.7053 406.599 59.1975 404.268 65.0596C403.462 67.0868 402.961 69.121 402.762 71.07C403.073 71.6785 403.015 72.3846 402.666 72.9249C402.663 75.4999 403.228 77.8602 404.356 79.7714C407.12 84.4515 409.834 88.5162 415.059 90.8525C417.114 91.7706 420.022 92.216 423.101 92.6882C427.711 93.3943 432.479 94.1244 435.601 96.6404C442.141 101.909 448.32 106.885 456.924 107.599C462.483 108.064 468.019 105.817 473.365 103.647C475.71 102.695 478.134 101.71 480.548 100.957C487.49 98.793 501.518 100.183 507.752 102.052C515.816 104.473 526.508 104.243 530.114 95.6431C532.983 88.7999 530.158 79.8193 523.682 75.1973C521.9 73.9255 519.908 72.9346 517.8 71.8848C514.502 70.2445 511.092 68.548 508.407 65.6533C507.523 64.6998 506.719 63.6892 505.943 62.7112C504.539 60.9438 503.213 59.2739 501.52 58.0445C496.47 54.3783 489.175 53.2741 481.514 55.0163C479.067 55.5718 477.131 57.0177 475.082 58.5489C472.041 60.8226 468.594 63.4017 463.314 62.6417C459.869 62.1465 456.577 60.8548 453.394 59.6056C452.692 59.3301 451.996 59.0561 451.304 58.794C449.179 57.9897 446.172 58.4793 443.649 60.046C441.496 61.3823 440.156 63.2225 439.969 65.0959C439.774 67.0583 440.724 69.2514 442.574 71.1123C443.236 71.7789 444.138 72.2262 445.092 72.7002C446.842 73.568 449.02 74.6482 450.005 77.4309C450.642 79.2315 450.621 80.993 450.601 82.6974C450.584 84.0576 450.569 85.3433 450.911 86.4884C451.571 88.699 452.993 90.6618 454.917 92.0133C458.54 94.5597 462.489 95.9329 466.337 95.9854C470.254 96.0702 473.929 94.5943 476.901 91.807C477.2 91.5264 477.494 91.2422 477.787 90.9598C480.131 88.6972 482.79 86.1287 487.105 86.3774C488.637 86.4617 491.309 86.3604 491.762 84.6763C492.335 82.5495 490.007 78.4088 486.471 76.611C481.987 74.3294 473.924 73.2368 470.044 77.9533C469.649 78.4319 469.471 79.0293 469.599 79.4416C469.804 80.0952 471.901 80.3228 472.796 80.42L473.125 80.4559C474.146 80.5715 474.879 81.4942 474.763 82.515C474.648 83.5367 473.726 84.2686 472.706 84.1562L472.395 84.1217C470.503 83.9162 466.98 83.5339 466.05 80.5517C465.547 78.9404 465.977 77.0375 467.173 75.5856C472.057 69.6461 481.629 69.9713 488.156 73.2912C492.534 75.5188 496.566 81.1404 495.353 85.6455C494.865 87.4581 493.11 90.4453 486.895 90.0948C484.313 89.9552 482.744 91.3477 480.368 93.6403C480.063 93.9346 479.755 94.2313 479.443 94.5238C475.756 97.9837 471.218 99.7903 466.286 99.7092C461.688 99.6466 457.016 98.0394 452.779 95.0609C450.176 93.2308 448.246 90.5651 447.346 87.5548C446.843 85.8656 446.862 84.2327 446.882 82.6527C446.899 81.2114 446.916 79.8506 446.499 78.6746C446.04 77.3779 445.087 76.8528 443.442 76.0366C442.312 75.4764 441.033 74.8421 439.937 73.7384C437.3 71.0856 435.963 67.8013 436.269 64.7279C436.57 61.6937 438.546 58.834 441.688 56.8823C445.213 54.6952 449.402 54.0918 452.619 55.312C453.325 55.5787 454.035 55.8578 454.752 56.1393C457.737 57.3107 460.824 58.5226 463.841 58.9561C467.601 59.4974 470.035 57.6741 472.857 55.5653C475.021 53.9485 477.473 52.1161 480.69 51.3851C489.4 49.4085 497.789 50.7356 503.704 55.031C505.806 56.5594 507.355 58.5088 508.853 60.3942C509.62 61.3597 510.344 62.2709 511.131 63.1198C513.355 65.5165 516.317 66.991 519.454 68.5512C521.599 69.619 523.819 70.7231 525.841 72.1667C533.674 77.757 537.057 88.7023 533.542 97.085C530.693 103.884 521.948 110.198 506.683 105.62C500.818 103.86 487.723 102.619 481.654 104.513C479.389 105.22 477.142 106.132 474.763 107.098C469.014 109.433 463.079 111.845 456.616 111.312C446.876 110.503 439.958 104.931 433.268 99.542C430.926 97.6543 426.661 97.0011 422.537 96.3696C419.203 95.8587 416.054 95.3764 413.543 94.2534C407.324 91.4735 404.134 86.7141 401.155 81.6679C400.063 79.8189 399.376 77.67 399.099 75.3502C387.923 83.0843 386.866 93.9973 388.09 102.08C389.248 109.726 394.397 117.115 401.53 121.366C408.117 125.293 415.21 124.636 422.72 123.938L424.346 123.789C428.778 123.392 433.357 123.04 437.978 123.04C442.258 123.04 446.575 123.342 450.851 124.191C457.813 125.573 463.671 129.323 469.336 132.95C470.22 133.515 471.101 134.08 471.985 134.635C480.534 139.996 487.738 141.838 494.646 140.442C499.448 139.471 502.442 136.74 505.91 133.579C506.976 132.608 508.076 131.605 509.272 130.616C514.746 126.088 519.625 123.388 524.628 122.12C530.427 120.649 537.158 120.174 544.094 120.745C545.068 120.825 546.021 120.925 546.958 121.023C551.731 121.525 555.856 121.958 560.069 119.301C561.76 118.235 563.021 117.002 563.815 115.635C565.415 112.883 565.766 108.531 564.805 103.38L564.521 101.894C563.364 95.9159 562.27 90.2689 568.219 85.0388C569.783 83.6643 571.622 82.596 573.402 81.5624C576.863 79.5508 579.853 77.8142 580.71 74.3046Z" fill="#28292F" stroke="#FBD043" stroke-width="2" mask="url(#path-9-inside-9_51_21)"/>
<mask id="path-10-inside-10_51_21" fill="white">
<path d="M1533.87 205.568C1528.97 204.176 1524.98 201.118 1521.12 198.16C1518.56 196.2 1516.14 194.349 1513.48 192.936C1506.53 189.256 1500.07 187.87 1494.3 188.817C1490.56 189.429 1487.01 191.757 1482.77 196.364C1482.73 196.409 1482.68 196.429 1482.63 196.468C1482.34 197.977 1481.54 199.361 1480.36 200.309C1479.07 201.356 1477.46 201.752 1475.84 201.427C1473.87 201.031 1472.66 199.694 1472.76 198.02C1472.8 197.244 1473.46 196.655 1474.25 196.696C1475.03 196.742 1475.62 197.408 1475.58 198.185C1475.57 198.377 1475.99 198.584 1476.4 198.664C1477.39 198.867 1478.14 198.478 1478.59 198.118C1479.41 197.454 1479.93 196.35 1479.94 195.236C1479.97 192.925 1479 191.146 1477.07 189.949C1473.98 188.04 1468.81 187.955 1465.29 189.755C1462.33 191.27 1459.89 193.743 1457.31 196.362C1455.43 198.276 1453.48 200.256 1451.29 201.841C1445.66 205.919 1439.65 208.035 1433.45 208.13C1426.35 208.232 1420.49 205.745 1414.31 203.105C1413.03 202.558 1411.74 202.006 1410.42 201.476C1404.67 199.149 1398.93 197.317 1393.37 196.034C1381.65 193.33 1369.91 192.653 1358.48 194.021C1351.76 194.825 1345.02 196.347 1338.46 198.544C1331.1 201.007 1323.76 204.113 1316.67 207.118C1313.17 208.601 1309.55 210.134 1305.99 211.56C1302.03 213.15 1298.04 214.415 1294.14 215.319C1289.27 216.447 1284.6 217.012 1280.19 217.012C1276.35 217.012 1272.7 216.586 1269.26 215.735C1269.24 215.729 1269.21 215.722 1269.19 215.716C1280.03 220.045 1290.77 221.436 1301.81 219.96C1312.73 218.498 1323.79 215.372 1334.48 212.349C1339.36 210.97 1344.41 209.544 1349.38 208.294C1379.61 200.688 1402.33 202.507 1418.84 213.854C1431.21 222.357 1444.61 230.176 1460.44 224.42C1465.97 222.408 1470.64 219.044 1475.58 215.483C1479.06 212.979 1482.65 210.389 1486.54 208.347C1495.99 203.393 1507.71 202.79 1518.72 206.694C1519.48 206.964 1520.26 207.253 1521.05 207.547C1527.43 209.915 1534.03 212.365 1539.43 208.251C1540.58 207.37 1541.52 206.406 1542.34 205.343C1539.64 206.315 1536.59 206.336 1533.87 205.568Z"/>
</mask>
<path d="M1533.87 205.568C1528.97 204.176 1524.98 201.118 1521.12 198.16C1518.56 196.2 1516.14 194.349 1513.48 192.936C1506.53 189.256 1500.07 187.87 1494.3 188.817C1490.56 189.429 1487.01 191.757 1482.77 196.364C1482.73 196.409 1482.68 196.429 1482.63 196.468C1482.34 197.977 1481.54 199.361 1480.36 200.309C1479.07 201.356 1477.46 201.752 1475.84 201.427C1473.87 201.031 1472.66 199.694 1472.76 198.02C1472.8 197.244 1473.46 196.655 1474.25 196.696C1475.03 196.742 1475.62 197.408 1475.58 198.185C1475.57 198.377 1475.99 198.584 1476.4 198.664C1477.39 198.867 1478.14 198.478 1478.59 198.118C1479.41 197.454 1479.93 196.35 1479.94 195.236C1479.97 192.925 1479 191.146 1477.07 189.949C1473.98 188.04 1468.81 187.955 1465.29 189.755C1462.33 191.27 1459.89 193.743 1457.31 196.362C1455.43 198.276 1453.48 200.256 1451.29 201.841C1445.66 205.919 1439.65 208.035 1433.45 208.13C1426.35 208.232 1420.49 205.745 1414.31 203.105C1413.03 202.558 1411.74 202.006 1410.42 201.476C1404.67 199.149 1398.93 197.317 1393.37 196.034C1381.65 193.33 1369.91 192.653 1358.48 194.021C1351.76 194.825 1345.02 196.347 1338.46 198.544C1331.1 201.007 1323.76 204.113 1316.67 207.118C1313.17 208.601 1309.55 210.134 1305.99 211.56C1302.03 213.15 1298.04 214.415 1294.14 215.319C1289.27 216.447 1284.6 217.012 1280.19 217.012C1276.35 217.012 1272.7 216.586 1269.26 215.735C1269.24 215.729 1269.21 215.722 1269.19 215.716C1280.03 220.045 1290.77 221.436 1301.81 219.96C1312.73 218.498 1323.79 215.372 1334.48 212.349C1339.36 210.97 1344.41 209.544 1349.38 208.294C1379.61 200.688 1402.33 202.507 1418.84 213.854C1431.21 222.357 1444.61 230.176 1460.44 224.42C1465.97 222.408 1470.64 219.044 1475.58 215.483C1479.06 212.979 1482.65 210.389 1486.54 208.347C1495.99 203.393 1507.71 202.79 1518.72 206.694C1519.48 206.964 1520.26 207.253 1521.05 207.547C1527.43 209.915 1534.03 212.365 1539.43 208.251C1540.58 207.37 1541.52 206.406 1542.34 205.343C1539.64 206.315 1536.59 206.336 1533.87 205.568Z" fill="#28292F" stroke="#FBD043" stroke-width="2" mask="url(#path-10-inside-10_51_21)"/>
<mask id="path-11-inside-11_51_21" fill="white">
<path d="M1293.06 207.794C1285.41 209.774 1277.76 210.764 1270.29 210.764C1268.22 210.764 1266.17 210.682 1264.13 210.53C1266.25 211.336 1268.31 212.055 1270.34 212.557C1277.31 214.281 1285.24 214.137 1293.91 212.132C1297.67 211.262 1301.52 210.042 1305.35 208.506C1308.88 207.091 1312.49 205.564 1315.98 204.088C1323.12 201.065 1330.51 197.939 1337.97 195.443C1344.72 193.187 1351.64 191.624 1358.56 190.797C1370.32 189.391 1382.38 190.084 1394.42 192.861C1400.13 194.177 1406.01 196.052 1411.9 198.432C1413.24 198.97 1414.54 199.527 1415.84 200.081C1421.74 202.598 1427.35 204.978 1433.83 204.876C1437.49 204.82 1441.08 203.965 1444.57 202.354C1444.64 202.297 1444.72 202.246 1444.81 202.203C1449.86 199.681 1452.53 191.146 1452.08 186.607C1451.76 183.344 1450.91 180.487 1449.56 178.113C1446.15 172.142 1438.93 168.454 1432 169.154C1425.78 169.778 1420.24 175.424 1419.9 181.483C1419.7 184.96 1420.75 188.27 1422.71 190.339C1424.36 192.075 1426.61 192.955 1429.41 192.955C1429.59 192.955 1429.76 192.992 1429.92 193.055C1432.46 192.266 1434.65 190.841 1435.39 188.668C1435.94 187.082 1435.4 184.752 1434.19 183.474C1433.75 183.01 1432.32 182.466 1431.23 182.656C1430.61 182.768 1430.48 183.066 1430.43 183.194C1430.13 183.91 1429.3 184.245 1428.58 183.94C1427.86 183.637 1427.53 182.81 1427.83 182.095C1428.33 180.916 1429.36 180.131 1430.73 179.885C1432.62 179.548 1435.04 180.273 1436.24 181.54C1438.16 183.565 1438.94 187.022 1438.07 189.579C1436.01 195.583 1427.46 197.233 1422.32 196.453C1418.21 195.831 1414.52 193.932 1410.97 192.097C1409.53 191.358 1408.18 190.659 1406.8 190.041C1400.09 187.036 1394.86 185.086 1389.83 183.72C1376.33 180.058 1362.94 179.531 1348.89 182.108C1338.26 184.056 1329.3 189.421 1319.81 195.101C1311.47 200.096 1302.84 205.26 1293.06 207.794Z"/>
</mask>
<path d="M1293.06 207.794C1285.41 209.774 1277.76 210.764 1270.29 210.764C1268.22 210.764 1266.17 210.682 1264.13 210.53C1266.25 211.336 1268.31 212.055 1270.34 212.557C1277.31 214.281 1285.24 214.137 1293.91 212.132C1297.67 211.262 1301.52 210.042 1305.35 208.506C1308.88 207.091 1312.49 205.564 1315.98 204.088C1323.12 201.065 1330.51 197.939 1337.97 195.443C1344.72 193.187 1351.64 191.624 1358.56 190.797C1370.32 189.391 1382.38 190.084 1394.42 192.861C1400.13 194.177 1406.01 196.052 1411.9 198.432C1413.24 198.97 1414.54 199.527 1415.84 200.081C1421.74 202.598 1427.35 204.978 1433.83 204.876C1437.49 204.82 1441.08 203.965 1444.57 202.354C1444.64 202.297 1444.72 202.246 1444.81 202.203C1449.86 199.681 1452.53 191.146 1452.08 186.607C1451.76 183.344 1450.91 180.487 1449.56 178.113C1446.15 172.142 1438.93 168.454 1432 169.154C1425.78 169.778 1420.24 175.424 1419.9 181.483C1419.7 184.96 1420.75 188.27 1422.71 190.339C1424.36 192.075 1426.61 192.955 1429.41 192.955C1429.59 192.955 1429.76 192.992 1429.92 193.055C1432.46 192.266 1434.65 190.841 1435.39 188.668C1435.94 187.082 1435.4 184.752 1434.19 183.474C1433.75 183.01 1432.32 182.466 1431.23 182.656C1430.61 182.768 1430.48 183.066 1430.43 183.194C1430.13 183.91 1429.3 184.245 1428.58 183.94C1427.86 183.637 1427.53 182.81 1427.83 182.095C1428.33 180.916 1429.36 180.131 1430.73 179.885C1432.62 179.548 1435.04 180.273 1436.24 181.54C1438.16 183.565 1438.94 187.022 1438.07 189.579C1436.01 195.583 1427.46 197.233 1422.32 196.453C1418.21 195.831 1414.52 193.932 1410.97 192.097C1409.53 191.358 1408.18 190.659 1406.8 190.041C1400.09 187.036 1394.86 185.086 1389.83 183.72C1376.33 180.058 1362.94 179.531 1348.89 182.108C1338.26 184.056 1329.3 189.421 1319.81 195.101C1311.47 200.096 1302.84 205.26 1293.06 207.794Z" fill="#28292F" stroke="#FBD043" stroke-width="2" mask="url(#path-11-inside-11_51_21)"/>
</svg>
