<svg width="132" height="107" viewBox="0 0 132 107" fill="none" xmlns="http://www.w3.org/2000/svg">
<mask id="path-1-inside-1_50_4" fill="white">
<path d="M42.2995 0C26.2532 0 11.0668 9.83928 0 9.83928V89.3923C11.0673 89.3923 26.2521 79.553 42.2995 79.553C51.7539 79.553 57.6795 83.4388 61.239 87.3284H70.761C74.3226 83.4427 80.2461 79.553 89.7005 79.553C105.747 79.553 120.933 89.3923 132 89.3923V9.83928C120.933 9.83928 105.748 0 89.7005 0C70.7917 0 66.001 15.552 66.001 15.552C66.001 15.552 61.2083 0 42.3016 0H42.2995ZM42.2995 88.3252C26.2553 88.3252 11.0694 98.1645 0 98.1645V106.937C11.0673 106.937 26.2521 97.0974 42.2995 97.0974C51.7539 97.0974 57.6795 100.987 61.239 104.873H70.761C74.3226 100.987 80.2461 97.0974 89.7005 97.0974C105.747 97.0974 120.933 106.937 132 106.937V98.1645C120.933 98.1645 105.748 88.3252 89.7005 88.3252C80.2461 88.3252 74.3205 92.2151 70.761 96.1006H61.239C57.6774 92.2107 51.7539 88.3252 42.2995 88.3252Z"/>
</mask>
<path d="M42.2995 0C26.2532 0 11.0668 9.83928 0 9.83928V89.3923C11.0673 89.3923 26.2521 79.553 42.2995 79.553C51.7539 79.553 57.6795 83.4388 61.239 87.3284H70.761C74.3226 83.4427 80.2461 79.553 89.7005 79.553C105.747 79.553 120.933 89.3923 132 89.3923V9.83928C120.933 9.83928 105.748 0 89.7005 0C70.7917 0 66.001 15.552 66.001 15.552C66.001 15.552 61.2083 0 42.3016 0H42.2995ZM42.2995 88.3252C26.2553 88.3252 11.0694 98.1645 0 98.1645V106.937C11.0673 106.937 26.2521 97.0974 42.2995 97.0974C51.7539 97.0974 57.6795 100.987 61.239 104.873H70.761C74.3226 100.987 80.2461 97.0974 89.7005 97.0974C105.747 97.0974 120.933 106.937 132 106.937V98.1645C120.933 98.1645 105.748 88.3252 89.7005 88.3252C80.2461 88.3252 74.3205 92.2151 70.761 96.1006H61.239C57.6774 92.2107 51.7539 88.3252 42.2995 88.3252Z" stroke="white" stroke-width="4" mask="url(#path-1-inside-1_50_4)"/>
</svg>
